/* XPM */
static char *_000[] = {
/* columns rows colors chars-per-pixel */
"32 32 6 1 ",
"  c #95BB1F",
". c #8FB31E",
"X c #A4C92D",
"o c #87AA1C",
"O c #9FC42C",
"+ c white",
/* pixels */
" .  .  X  ..  .  o .    O      .",
"  .. .  O X     .  . o  .X X .. ",
"...  . .   o . X  .  .  .   .  .",
".  O  . o .o . O .X.  .   . o X ",
" XO  .    .     .   OX . o.. .OX",
" X   . XX   X    o . O X o. o  O",
"   .o . OX X o. .o.   O..   .  .",
" o  o. . O.X.o .  ..     .   .. ",
". . .  ....  ..o .  o. . O  X  .",
" . .OX   .    ..   .o     X..   ",
".o.  OX X  . .   X   . .     .. ",
".o    OX  .   .   X    . . .o.  ",
" .. . .  .  O  X. O X.. .o.     ",
" .  . .o     X.O.  .   O  .  X .",
"  X  X o.  .     . . .  OX  XO  ",
".  X X   O   . ..   .o   OX O  .",
" . .   .  X   ..  o  o . .O . o ",
" .   o.   O X  o.    .       .  ",
"   X   .   .  .o  X     .  .   o",
" XO  . o .  .    .OX  X  .o. O  ",
"XO  .. o o.    . . O.X. . o   X ",
"O      .   . X    ..   . . .. O ",
" . .  X  .   OX  X   .  o.  o  .",
".   . O X .   O.X. .         .  ",
" o o.  ..  o.        X .  X   . ",
"  .o  .  .   .  .o.   OX XO  .o ",
" .      . X     .   .. O O..   .",
"  O  X X .OX  X    . o   ..  .  ",
" X.  OX  . O X.. X      . o  X .",
"XO  . O...  .  o  OX  X   o.  X ",
"O .   .  o    . .  O X  o.  . O ",
"   . .. .  X .. . . . ..  .  .. "
};
