/* XPM */
static char *_010[] = {
/* columns rows colors chars-per-pixel */
"32 32 14 1 ",
"  c None",
". c #323234",
"X c #534721",
"o c #545456",
"O c #77584A",
"+ c #705654",
"@ c #767678",
"# c #8B5E4A",
"$ c #A77E5D",
"% c #8F7772",
"& c #979799",
"* c #A48D87",
"= c #B7A099",
"- c #B7B7BB",
/* pixels */
"                                ",
"             .......            ",
"           ..oo@@@oo..          ",
"          .o@@&&&&&@@o.         ",
"         .o@&&&---&&&@o.        ",
"        .o@&&&-----&&&@o.       ",
"       .o@&&&-------&&&@o.      ",
"       .@@&&&-------&&&@@.      ",
"      .o@&&&&&-----&&&&&@o.     ",
"      .o@&&&&&&&&&&&&&&&@o.     ",
"      .o@&&&&&&&&&&&&&&&@o.     ",
"     .@.o@&&&&&&&&&&&&&@o.@.    ",
"     .@.o@@&&&&&&&&&&&@@o.@.    ",
"     .o.oo@@@&&&&&&&@@@oo.o.    ",
"     ...ooo@@@@@@@@@@@ooo...    ",
"      .oooooo@@@@@@@oooooo.     ",
"      .o@ooooooooooooooo@o.     ",
"       .o@@ooooooooooo@@o.      ",
"      .o..o@@@&&&&&@@@o..o.     ",
"     .@&--...ooooooo...--&@.    ",
"     .o&&-o.o@@@@@@@o.o-&&o.    ",
"      .oo..@@&&&&&&&@@..oo.     ",
"     .@-&@.o@@&&&&&@@o.@&-@.    ",
"     .&&@o..oo@@@@@oo..o@&&.    ",
"     X$$o..o...ooo...o..o$$X    ",
"     X##..o@-%*=*=*%-@o..##X    ",
"      XX .o&-%+++++%-&o. XX     ",
"          .&+*%XXX%*+&.         ",
"           .o@@...@@o.          ",
"           X#$OX XO$#X          ",
"           X$$#X X#$$X          ",
"            XXX   XXX           "
};
