/* XPM */
static char *_001[] = {
/* columns rows colors chars-per-pixel */
"32 32 15 1 ",
"  c None",
". c #2E1E22",
"X c #323234",
"o c #534721",
"O c #545456",
"+ c #77584A",
"@ c #767678",
"# c #8B5E4A",
"$ c #9D704C",
"% c #A77E5D",
"& c #D7906E",
"* c #979799",
"= c #B7B7BB",
"- c #EEBE93",
"; c #FFE1AF",
/* pixels */
"                                ",
"             XXXXXXX            ",
"           XXOO@@@OOXX          ",
"          XO@@*****@@OX         ",
"         XO@***===***@OX        ",
"        XO@***=====***@OX       ",
"       XO@***=======***@OX      ",
"       X@@***=======***@@X      ",
"      XO@*****=====*****@OX     ",
"      XO@XXO@@*****@@OXX@OX     ",
"      XOXO*XXOOOOOOOXX*OXOX     ",
"     X@XO@@**=======**@@OX@X    ",
"     X@XOO.O@@*****@@O.OOX@X    ",
"     XOXO*O...........O*OXOX    ",
"     XXXO@*O.........O*@OXXX    ",
"      XXXO@**=======**@OXXX     ",
"      XOOXXO@@*****@@OXXOOX     ",
"       XO@X&-;;;;;;;-&X@OX      ",
"      XOXXXo$&-----&$oXXXOX     ",
"     X@*==@OoooooooooO@==*@X    ",
"     XO**=OXO@*@@@*@OXO=**OX    ",
"      XOOXX@*==***==*@XXOOX     ",
"     X@=*@X@**@OOO@**@X@*=@X    ",
"     X**@OXXXOO@*@OOXXXO@**X    ",
"     o%%OXXOOXXOOOXXOOXXO%%o    ",
"     o##XXO@=@O===O@=@OXX##o    ",
"      oo XO*=X@*=*@X=*OX oo     ",
"          X*XOX@*@XOX*X         ",
"           XO=@XXX@=OX          ",
"           o##+o o+##o          ",
"           o%%#o o#%%o          ",
"            ooo   ooo           "
};
