/* XPM */
static char *_000[] = {
/* columns rows colors chars-per-pixel */
"32 32 16 1 ",
"  c None",
". c #370000",
"X c #3E1200",
"o c #530000",
"O c #5E0000",
"+ c #6B0000",
"@ c #592C00",
"# c #754800",
"$ c #830000",
"% c #926400",
"& c #AD8100",
"* c #CA9C00",
"= c #D8AA00",
"- c #E3B900",
"; c #F2DF04",
": c #FFFF08",
/* pixels */
"  @@@@@@@@@@@@####@@@@@@@@@@@@  ",
"  @;#-------@&----&@&------#-@  ",
"  @;;;;;;;;;&-%%%%-%&;;;;;;;;@  ",
"  @@@@@@@@@@:;&XX&-%@@@@@@@@@@  ",
"  XXXXXXXXXXX-::::%XXXXXXXXXXX  ",
"  XXXXXXXXXXXXXXXXXXXXXXXXXXXX  ",
"  ###########################@  ",
"  #%%%%%%%%%%%%%%%%%%%%%%%%%%@  ",
"  #==%&*******************&==@  ",
"  #;=%&&&&&&&&&&&&&&&&&&&&&-=@  ",
"  #:;.ooooooooooooooOOOOOOO--@  ",
"  #:;.oooooooOOOOOOO+++$+$$;-@  ",
"  #:;..oooooooOOOOOOO+++++$;-@  ",
"  #:;...oooooooOOOOOOO+++++;-@  ",
"  #:;....oooooooOOOOOOO++++;-@  ",
"  #:;.....oooooooOOOOOOO+++;-@  ",
"  #:;......................;-@  ",
"  #:;......................;-@  ",
"  #:;......................;-@  ",
"  #:;---------;;;;---------;-@  ",
"  #::::::;:;;;****;;::::;;;;-@  ",
"  X*********&@&@@&%-********#X  ",
"  X-#********&@&&%-********@#X  ",
"  X-**oooo%%oooooooo%%oooo*&#X  ",
"  X-**o+++-*o+++++++-*o+++-&#X  ",
"  X-**o+++-*o+++++++-*o+++-&#X  ",
"  X-&&oOOO-&oOOOOOOO-&oOOO-&#X  ",
"  X-&&oOOO-&oOOOOOOO-&oOOO*&#X  ",
"  X-&&%*--&&%****---&&%**-&%#X  ",
"  X-@%%%%%%@%%%%%%%%@%%%%%%@#X  ",
"  XXXXXXXXXXXXXXXXXXXXXXXXXXXX  ",
"                                "
};
