/* XPM */
static char *_003[] = {
/* columns rows colors chars-per-pixel */
"32 32 18 1 ",
"  c None",
". c #3E1200",
"X c #530000",
"o c #5E0000",
"O c #6B0000",
"+ c #592C00",
"@ c #754800",
"# c #830000",
"$ c #9D0000",
"% c #B50000",
"& c #CF0000",
"* c #926400",
"= c #AD8100",
"- c #CA9C00",
"; c #D8AA00",
": c #E3B900",
"> c #F2DF04",
", c #FFFF08",
/* pixels */
"                                ",
"                                ",
"  @@@@    @@        @@    @@@@  ",
"  @>;;OOOO;;OOOOOOOO;;OOOO>;;@  ",
"  @>::O$$$::O$$$$$$$::O$$$>::*  ",
"  *,,,#%%%,,#%%%%%%%,,#%%%,,,*  ",
"  *,>>#&&&;;#&&&&&&&;;#&&&,>>*  ",
"  *,,,,,,,,,,,,,,,,,,,,,,,,,,*  ",
"  *,-,,,,,,-,,,,,,,,-,,,,,,-,*  ",
"  *,>>>>>>>>>>>>>>>>>>>>>>,>>@  ",
"  *,>>@@*=;;@@****==;;@@*=,>>@  ",
"  @,>>#&&&>>#&&&&&&&>>#&&&,>>@  ",
"  @>::#&&&::#&&&&&&&::#&&&>::@  ",
"  @>;;#%%%;;#%%%%%%%;;#%%%>;;@  ",
"  @>::O%%%::O%%%%%%%::O%%%>::@  ",
"  +>;;O$$$;;O$$$$$$$;;O$$$>;;+  ",
"  +>;;O###;;O#######;;O###>;;+  ",
"  +>;;*;>>==*;****>>==*;>>>;;+  ",
"  +:@--------*>>>>+*-------@-+  ",
"  +:--------*>---->+*--------+  ",
"  .+++++++++>-+.++->.++++++++.  ",
"  .-*******.-=*..*=*.@******@.  ",
"  .:@======@.*=.+=*.@======+@.  ",
"  .:--XXXX**X.****.X**XXXX-=@.  ",
"  .:--XOOO:-XX....XO:-XOOO:=@.  ",
"  .:--XOOO:-XOXXXXOO:-XOOO:=@.  ",
"  .:==Xooo:=Xooooooo:=Xooo:=@.  ",
"  .:==Xooo:=Xooooooo:=Xooo-=@.  ",
"  .:==*-::==*----:::==*--:=*@.  ",
"  .:+******+********+******+@.  ",
"  ............................  ",
"                                "
};
