/* XPM */
static char *_008[] = {
/* columns rows colors chars-per-pixel */
"32 32 18 1 ",
"  c None",
". c #2E1E22",
"X c #323234",
"o c #534721",
"O c #555836",
"+ c #6E5E2C",
"@ c #545456",
"# c #7D7375",
"$ c #767678",
"% c #959963",
"& c #979799",
"* c #BABE95",
"= c #B1ABAD",
"- c #B7B7BB",
"; c #D2D2D6",
": c #E4E6D1",
"> c #E5E3E3",
", c white",
/* pixels */
"                                ",
"                                ",
"                                ",
"                                ",
"             OOOOOOO            ",
"           OO%%***%%OO          ",
"          O%**:::::**%O         ",
"         O%*:::::::::*%O        ",
"         O*::,,,,,,:::*O        ",
"        O%::,,,,,,,,::*%O       ",
"        O*:,,,,,,,,,,::*O       ",
"        O::,::::::,,:::*O       ",
"        O:,:,,,,,:*:::**O       ",
"        O*:,>==>,,:*****O       ",
"        O*,>#..#>,:%***%O       ",
"        O:,=....=,:*%%%%O       ",
"        O:,=....=,,:*%%O        ",
"        O*%>#..#>,*%%OO         ",
"         O*:>==>,*%%O           ",
" &&&&&&   O%O>%:%%%O            ",
"  &;;;;&&  XXXXOOOOO            ",
"   &&;;;;&&X@$$XXXX*O           ",
"     &&;;;;X@o&---X:O           ",
"       &&;;X@o+o+-X%O           ",
"         &&X@$+o+-X*O           ",
"           X@$&---XO            ",
"           X@o$&--XO            ",
"           X@o+o+-XO            ",
"          OX@o+o-$X%O           ",
"          O%Xo+&$X*,:O          ",
"           OX$&$X,,,:O          ",
"             XXX OOOO           "
};
