/* XPM */
static char *_006[] = {
/* columns rows colors chars-per-pixel */
"32 32 18 1 ",
"  c None",
". c #2E1E22",
"X c #323234",
"o c #534721",
"O c #555836",
"+ c #6E5E2C",
"@ c #545456",
"# c #7D7375",
"$ c #767678",
"% c #959963",
"& c #979799",
"* c #BABE95",
"= c #B1ABAD",
"- c #B7B7BB",
"; c #D2D2D6",
": c #E4E6D1",
"> c #E5E3E3",
", c white",
/* pixels */
"                                ",
"                                ",
"                                ",
"                                ",
"             OOOOOOO            ",
"           OO%%***%%OO          ",
"          O%**:::::**%O         ",
"         O%*:::::::::*%O        ",
"         O*::,,,,,,:::*O        ",
"    &   O%::,,,,,,,,::*%O       ",
"    &&  O*:,,,,,,,,,,::*O       ",
"    &;& O::,::::::,,:::*O       ",
"    &;& O:,:,,,,,:*:::**O       ",
"    &;;&O*:,>==>,,:*****O       ",
"    &;;&O*,>#..#>,:%***%O       ",
"     &;;O:,=....=,:*%%%%O       ",
"     &;;O:,=....=,,:*%%O        ",
"      &;O*%>#..#>,*%%OO         ",
"      &;;O*:>==>,*%%O           ",
"       &;;O%O>%:%%%O            ",
"       &;;&OOOOOOOOO  XXXXX     ",
"        &;;O%%,,:*XXXX$&$@X     ",
"        &;;O:,*%%:X$&--o+@X     ",
"       X@$$O*,,,:%X$+o+o+@X     ",
"      X$$$@@O%%***X$+o+o+@X     ",
"       XXX   OO%%%X$&--&$@X     ",
"             O%*:*X$&--&$@X     ",
"            OO,:*%X$+o+o+@X     ",
"           O:,:*OOX@&o+o+@X     ",
"          O,,:%%O OX@&+o$X      ",
"          O,,,*O  OOX@&&X       ",
"           OOOO      XXX        "
};
