/* XPM */
static char *_001[] = {
/* columns rows colors chars-per-pixel */
"32 32 12 1 ",
"  c None",
". c #323234",
"X c #534721",
"o c #555836",
"O c #545456",
"+ c #767678",
"@ c #959963",
"# c #979799",
"$ c #BABE95",
"% c #D2D2D6",
"& c #E4E6D1",
"* c white",
/* pixels */
"                                ",
"                                ",
"                                ",
"             ooooooo            ",
"           oo@@$$$@@oo          ",
"          o@$$&&&&&$$@o         ",
"         o@$&&*****&&$@o        ",
"         o$&&*******&&$o        ",
"        o@$&*********&$@o    #  ",
"        o$&&*********&&$o   ##  ",
"        o$&&*********&&$o  #%#  ",
"        o$&&*********&&$o  #%#  ",
"        o$&&&*******&&&$o #%%#  ",
"        o$$&&&&&&&&&&&$$o #%%#  ",
"        o@@&$$$$$$$$$&@@o #%%#  ",
"        o@@$$@@@@@@@$$@@o #%%#  ",
"         o@@@ooooooo@@@o #%%#   ",
"         oooooo@$@oooooo #%%#   ",
"      ..o@@$$@o@@@o@$$@@o#%%#   ",
"    ..#o@$***&@$&$@&***$@o%%#   ",
"   .#+Oo*&$***$@$@$***$&*o%#    ",
"   .#XXo&$o$**@$&$@**$o$&o%#    ",
"   .#Xo&@oo@$$@o$o@$$@oo@&oO.   ",
"   .#o@*$o.o@@o@*@o@@o o$*@o+.  ",
"   .#o**@oo$*&o@&@o&*$oo@**o.   ",
"   .#o*&oOo@&**o$o**$@o o&*o    ",
"   .#XooXO.o@$$@@@$$@o   oo     ",
"   .+OXXXO.o&&ooooo&&o          ",
"    .+OX+. o$$$o o$$$o          ",
"     .+O.  o&*&o o&*&o          ",
"      ..   o**&o o&**o          ",
"            ooo   ooo           "
};
