/* XPM */
static char *_010[] = {
/* columns rows colors chars-per-pixel */
"32 32 26 1 ",
"  c None",
". c #2E1E22",
"X c #323234",
"o c #534721",
"O c #505133",
"+ c #555836",
"@ c #6E5E2C",
"# c #545456",
"$ c #635B4D",
"% c #6E6B4B",
"& c #736A64",
"* c #7D7375",
"= c #767678",
"- c #86826A",
"; c #959963",
": c #979799",
"> c #A09B90",
", c #A9AA86",
"< c #BABE95",
"1 c #B1ABAD",
"2 c #B7B7BB",
"3 c #CDCDBB",
"4 c #D2D2D6",
"5 c #E4E6D1",
"6 c #E5E3E3",
"7 c white",
/* pixels */
"                                ",
"                                ",
"                                ",
"                                ",
"             +++++++            ",
"           ++;;<<<;;++          ",
"          +;<<55555<<;+         ",
"         +;<555555555<;+        ",
"         +<55577777555<+        ",
"        +;<55777777755<;+       ",
":       +<<<577777775<<<+       ",
"::      +<5555777775555<+       ",
":7:     +<5777577757775<+       ",
":77:    +<3116755576113<+       ",
":772    +,&..*67776*..&,+       ",
":474:   +%....17771....%+       ",
" :77:   +%....17571....%+       ",
" :472    O$..*6;<;6*..$O        ",
"  :74:   +O->6777776>-O+        ",
"  :44:  +;;+;+5;5;5+;+;;+ XXX   ",
"   :44:+<75<+++++++++<5XXX#=X   ",
"   :44:XX5<5777;;;77XXX=2:=#X   ",
"   X:44##X+;;;<757<;X:22=o@#X   ",
"  X###XXX +<577<<<77X:@o@o@#X   ",
"   XXX++   +;;<;;;<;X:@o@:=#X   ",
"          +<5<++;++<X:222=##X   ",
"          +;75;+<+;5X:22=o@#X   ",
"           +<7<;;;<7X:@o@o@#X   ",
"           +7<+++++;X=2o@o@#X   ",
"           +<5;+ +;<;X=2@o#X    ",
"           +577;  +++ X=:=X     ",
"           +777;       XXX      "
};
