/* XPM */
static char *_009[] = {
/* columns rows colors chars-per-pixel */
"32 32 26 1 ",
"  c None",
". c #2E1E22",
"X c #323234",
"o c #534721",
"O c #505133",
"+ c #555836",
"@ c #6E5E2C",
"# c #545456",
"$ c #635B4D",
"% c #6E6B4B",
"& c #736A64",
"* c #7D7375",
"= c #767678",
"- c #86826A",
"; c #959963",
": c #979799",
"> c #A09B90",
", c #A9AA86",
"< c #BABE95",
"1 c #B1ABAD",
"2 c #B7B7BB",
"3 c #CDCDBB",
"4 c #D2D2D6",
"5 c #E4E6D1",
"6 c #E5E3E3",
"7 c white",
/* pixels */
"                                ",
"                                ",
"                                ",
"             +++++++            ",
"           ++;;<<<;;++          ",
"          +;<<55555<<;+         ",
"         +;<555555555<;+        ",
"         +<55577777555<+        ",
"        +;<55777777755<;+       ",
"  :     +<<<577777775<<<+       ",
"  ::    +<5555777775555<+       ",
"  :7:   +<5777577757775<+       ",
"  :72   +<3116755576113<+       ",
"  :77:  +,&..*67776*..&,+       ",
"  :77:  +%....17771....%+       ",
"  :47:  +%....17571....%+       ",
"  :472   O$..*6;<;6*..$O        ",
"   :77:  +O->6777776>-O+        ",
"   :77: +;;+;+5;5;5+;+;;+   XXX ",
"   :47:+;75<+++++++++<57;XXX#=X ",
"   :472+7;;5777;;;7775XXX#:==#X ",
"    :77XXX+;;;<757<;;;X=:2#o@#X ",
"    :77#::X<577<<<775<X=@o@o@#X ",
"   X#=::#X +;;<;;;<;;+X=@o@#=#X ",
"  X=::##X++<5<++;++<5<X=:2:=##X ",
"   XXX75+ +;75;+<+;57;X=::=o@#X ",
"      ++   +<7<;;;<7<+X=@o@o@#X ",
"           +5<+++++<5+X=:o@o@#X ",
"           +<5;+ +;5<+ X#:@o#X  ",
"           +57<+ +<75+  X#:=X   ",
"           +775+ +577+   XXX    ",
"            +++   +++           "
};
