/* XPM */
static char *_005[] = {
/* columns rows colors chars-per-pixel */
"32 32 102 2 ",
"   c None",
".  c #719731",
"X  c #709632",
"o  c #759337",
"O  c #749A33",
"+  c #759A33",
"@  c #749835",
"#  c #729F34",
"$  c #759C34",
"%  c #779F34",
"&  c #7B973D",
"*  c #7C973C",
"=  c #76A136",
"-  c #76A137",
";  c #7AA035",
":  c #7CA036",
">  c #7CA437",
",  c #7DA537",
"<  c #7EA637",
"1  c #7EA837",
"2  c #7FA937",
"3  c #7BA338",
"4  c #7DA338",
"5  c #7EA638",
"6  c #7FA73A",
"7  c #7EA938",
"8  c #809E3F",
"9  c #81A837",
"0  c #81A439",
"q  c #82A43E",
"w  c #80A839",
"e  c #80AA39",
"r  c #82AB38",
"t  c #82AB39",
"y  c #80AA3A",
"u  c #81AA3A",
"i  c #81AB3A",
"p  c #80AC38",
"a  c #81AC39",
"s  c #83AE39",
"d  c #83AD3A",
"f  c #83AD3B",
"g  c #85AD39",
"h  c #85AF39",
"j  c #86AE39",
"k  c #84AD3A",
"l  c #84AD3B",
"z  c #84AF3A",
"x  c #85AF3A",
"c  c #84AE3B",
"v  c #86AF3B",
"b  c #86AF3C",
"n  c #88AC3D",
"m  c #88AE3D",
"M  c #88AF3E",
"N  c #85B03A",
"B  c #87B13A",
"V  c #86B03B",
"C  c #88B03A",
"Z  c #88B23B",
"A  c #88B33B",
"S  c #8AB43B",
"D  c #8AB53B",
"F  c #89B13C",
"G  c #8AB33C",
"H  c #8AB33D",
"J  c #8BB23E",
"K  c #8CB43C",
"L  c #8DB63C",
"P  c #8DB73C",
"I  c #8CB63D",
"U  c #8DB63D",
"Y  c #8EB53E",
"T  c #8FB53F",
"R  c #8DB63E",
"E  c #90B93D",
"W  c #90BA3D",
"Q  c #91B93F",
"!  c #92BB3E",
"~  c #92BA3F",
"^  c #869C43",
"/  c #869A46",
"(  c #8C9C49",
")  c #929E4F",
"_  c #87A142",
"`  c #88A043",
"'  c #8AA643",
"]  c #8EA547",
"[  c #94A34C",
"{  c #90A64E",
"}  c #92AC49",
"|  c #94AC4A",
" . c #8FB044",
".. c #94B049",
"X. c #98AF52",
"o. c #9FAF57",
"O. c #9BA758",
"+. c #9BB054",
"@. c #A1B453",
"#. c #A7AE64",
"$. c #ACB367",
"%. c #B5B06D",
/* pixels */
"J y b  .                                                        ",
"- g 4 {                                                         ",
"J L m ..                                                        ",
"L a 5 /                                                         ",
"y a > _                                                         ",
"g a L @.                                                        ",
"J # y @                                                         ",
"y g . :                                                         ",
"a W ; 0                                                         ",
"g g . &                                                         ",
"a S 1 '                                                         ",
"g S g o                                                         ",
"W W L m                                                         ",
"g L y O.                                                        ",
"L A 5 X.                                                        ",
"L 7 g +.                                                        ",
"J y m o.                                                        ",
"- g > q                                                         ",
"J L + (                                                         ",
"L a > ]                                                         ",
"y a % `                                                         ",
"a a A [                                                         ",
"J # 1 /                                                         ",
"y B B L                                                         ",
"a W + *                                                         ",
"a g % 8                                                         ",
"a S y )                                                         ",
"g S 9 ^                                                         ",
"W W L $.                                                        ",
"g L } #.                                                        ",
"L A 3 |                                                         ",
"L 7 B %.                                                        "
};
