/* XPM */
static char *_006[] = {
/* columns rows colors chars-per-pixel */
"32 32 183 2 ",
"   c None",
".  c #64882C",
"X  c #688D2D",
"o  c #6C912F",
"O  c #6F952F",
"+  c #6C8E31",
"@  c #718B38",
"#  c #709332",
"$  c #709630",
"%  c #729731",
"&  c #739731",
"*  c #739833",
"=  c #709B33",
"-  c #759C33",
";  c #749D33",
":  c #769E33",
">  c #729B34",
",  c #779A35",
"<  c #769C34",
"1  c #789E33",
"2  c #789D34",
"3  c #749038",
"4  c #779339",
"5  c #7C923E",
"6  c #779838",
"7  c #7F983F",
"8  c #76A135",
"9  c #77A135",
"0  c #76A036",
"q  c #76A137",
"w  c #77A436",
"e  c #7AA134",
"r  c #79A335",
"t  c #78A436",
"y  c #79A436",
"u  c #78A536",
"i  c #7BA436",
"p  c #7AA536",
"a  c #7AA636",
"s  c #7AA737",
"d  c #7EA536",
"f  c #7FA636",
"g  c #7EA737",
"h  c #7FA737",
"j  c #7CA837",
"k  c #7DA837",
"l  c #7DA937",
"z  c #7CA538",
"x  c #7EA63A",
"c  c #7DA838",
"v  c #7DA938",
"b  c #7EA938",
"n  c #7FA938",
"m  c #7FAA38",
"M  c #7FAB38",
"N  c #7EA93A",
"B  c #7B8D41",
"V  c #7F9742",
"C  c #80A536",
"Z  c #80A736",
"A  c #80A937",
"S  c #81A937",
"D  c #82A53C",
"F  c #80A938",
"G  c #80A939",
"H  c #80AA38",
"J  c #81AA38",
"K  c #80AB38",
"L  c #81AB39",
"P  c #82AA38",
"I  c #83AB38",
"U  c #81A93A",
"Y  c #81AA3A",
"T  c #81AA3B",
"R  c #82AB3A",
"E  c #80AC38",
"W  c #80AC39",
"Q  c #83AC38",
"!  c #82AC39",
"~  c #82AD39",
"^  c #83AD39",
"/  c #82AE39",
"(  c #83AE39",
")  c #83AC3A",
"_  c #83AD3A",
"`  c #83AC3B",
"'  c #83AD3B",
"]  c #84AD38",
"[  c #85AD39",
"{  c #84AE39",
"}  c #85AE39",
"|  c #84AF39",
" . c #85AF39",
".. c #87AF39",
"X. c #84AC3A",
"o. c #85AF3A",
"O. c #85AE3B",
"+. c #86AF3B",
"@. c #87AF3B",
"#. c #86AF3C",
"$. c #85B03A",
"%. c #86B03A",
"&. c #87B13A",
"*. c #86B03B",
"=. c #87B23A",
"-. c #89B03A",
";. c #88B13A",
":. c #89B13A",
">. c #88B23A",
",. c #88B23B",
"<. c #88B33B",
"1. c #89B33B",
"2. c #8AB33A",
"3. c #8BB43B",
"4. c #8BB53B",
"5. c #88B13C",
"6. c #8AB13C",
"7. c #88B23C",
"8. c #89B23C",
"9. c #8BB33D",
"0. c #8BB03F",
"q. c #89B23E",
"w. c #8AB23E",
"e. c #8BB23E",
"r. c #8BB43C",
"t. c #8BB53C",
"y. c #8CB53C",
"u. c #8CB53D",
"i. c #8DB53D",
"p. c #8CB63C",
"a. c #8DB63C",
"s. c #8DB73C",
"d. c #8EB73C",
"f. c #8EB83C",
"g. c #8FB83C",
"h. c #8EB83D",
"j. c #8FB93D",
"k. c #90B93D",
"l. c #90BA3D",
"z. c #93BB3E",
"x. c #95BA3D",
"c. c #879F43",
"v. c #879948",
"b. c #8B994B",
"n. c #8C994D",
"m. c #929E53",
"M. c #959E54",
"N. c #989759",
"B. c #9A985A",
"V. c #9D9F5F",
"C. c #85A040",
"Z. c #83A640",
"A. c #8BA643",
"S. c #89A144",
"D. c #88A645",
"F. c #8BAA42",
"G. c #8EAB47",
"H. c #90AE44",
"J. c #91A64D",
"K. c #92A64F",
"L. c #91AD48",
"P. c #93AC4B",
"I. c #96AF4C",
"U. c #8FB044",
"Y. c #91B045",
"T. c #98B94A",
"R. c #9CA955",
"E. c #95A258",
"W. c #9BA05E",
"Q. c #9CA25E",
"!. c #9AB153",
"~. c #A1A25B",
"^. c #A5A55F",
"/. c #A0B352",
"(. c #A0B752",
"). c #A3B75A",
"_. c #A8A365",
"`. c #B2AB68",
"'. c #B2AB6D",
"]. c #A9B061",
"[. c #AAB260",
"{. c #A8B162",
"}. c #ADB165",
/* pixels */
"^ | *.Z.[.                                                      ",
"f.l.u.T.).                                                      ",
"*.-.p !.}.                                                      ",
"| 9 ^ F.                                                        ",
"v -.f.P.                                                        ",
"^ p v Y.                                                        ",
"-.v l U.[.                                                      ",
"*.f.6.P.                                                        ",
"*.; > R.                                                        ",
"u.^ ^ D.                                                        ",
"-.f.6.[.                                                        ",
"*.^ u.H.~.                                                      ",
"| 4.K J.`.                                                      ",
"K ^ v I.                                                        ",
"*.v K /.                                                        ",
"u.^ 6.G.                                                        ",
"^ | D _.                                                        ",
"f.l.r.(.                                                        ",
"*.-.p c.                                                        ",
"| 9 v 5                                                         ",
"v -.u.6 '.                                                      ",
"^ p l | A.                                                      ",
"-.v l *.C.                                                      ",
"*.f.-.^ Z b.                                                    ",
"*.; = p r 2 S.                                                  ",
"u.^ ^ p | g $ 4 v.                                              ",
"-.f.-.u.l.-.*.K x                                               ",
"*.^ u.| Z u.g 9 p 7 n.^.                                        ",
"| 4.^ w K ^ v | -.| o , V Q.M.      W.E.J.B.N.4 B   m.+ @ V.    ",
"K ^ l K *.l.u.l.f.l.x.l.A ; g 6.x # O p ^ $ r 1 g = $ -.K . X < ",
"*.v v r.^ 4.-.*.*.f.4.A K K | 9 *.g g -.^ *.^ | *.u.*.A K ; K 9 ",
"u.^ 6.| K | v K | | K K 6.#.K 6.u.^ 6.| K | v ^ | | ^ K 6.| K 6."
};
