/* XPM */
static char *_013[] = {
/* columns rows colors chars-per-pixel */
"32 32 104 2 ",
"   c #729533",
".  c #749C34",
"X  c #7C973D",
"o  c #76A137",
"O  c #7CA336",
"+  c #7FA937",
"@  c #7DA539",
"#  c #7EA938",
"$  c #809E3F",
"%  c #81A837",
"&  c #82A43C",
"*  c #83AD3A",
"=  c #88AE3D",
"-  c #86B03A",
";  c #8BB43C",
":  c #91BA3E",
">  c #869B45",
",  c #8C9C49",
"<  c #929E4F",
"1  c #87A142",
"2  c #8BA444",
"3  c #92A54D",
"4  c #93AC4A",
"5  c #8FB044",
"6  c #94B049",
"7  c #99A655",
"8  c #9BAD54",
"9  c #9BA758",
"0  c #9BB054",
"q  c #A0A959",
"w  c #A1B354",
"e  c #A7AE64",
"r  c #ADAD67",
"t  c #B2A56C",
"y  c #B3AD6D",
"u  c #ACB367",
"i  c #B5B06D",
"p  c #B5A573",
"a  c #B9AC73",
"s  c #BDAD79",
"d  c #BAB372",
"f  c #C0AF75",
"g  c #C5AD7F",
"h  c #C3B37D",
"j  c #BEB582",
"k  c #C6AE81",
"l  c #C9AF81",
"z  c #C7B283",
"x  c #CCB484",
"c  c #C4B982",
"v  c #CFB986",
"b  c #CEB689",
"n  c #CEBB8B",
"m  c #D0B784",
"M  c #D3BB86",
"N  c #D8BF87",
"B  c #D0B788",
"V  c #D4BD8A",
"C  c #D8BF8A",
"Z  c #D4BF91",
"A  c #D7C085",
"S  c #D6C08D",
"D  c #DBC38C",
"F  c #DFC88E",
"G  c #D6C292",
"H  c #DBC593",
"J  c #DEC994",
"K  c #D7C398",
"L  c #D9C398",
"P  c #DBC798",
"I  c #DCC798",
"U  c #DFCB98",
"Y  c #DECB9A",
"T  c #E3CB8E",
"R  c #E1C990",
"E  c #E2CC93",
"W  c #E4CD93",
"Q  c #E1CB94",
"!  c #E1CE97",
"~  c #E3CE96",
"^  c #E0CC9A",
"/  c #E2CE9A",
"(  c #E4CF9A",
")  c #E2CE9F",
"_  c #E4CE9C",
"`  c #E6D096",
"'  c #E5D09A",
"]  c #E3D09E",
"[  c #E5D19E",
"{  c #E5D29E",
"}  c #E8D29F",
"|  c #DFCEA1",
" . c #E3CFA1",
".. c #E3D0A2",
"X. c #E5D3A2",
"o. c #E7D4A1",
"O. c #E4D2A4",
"+. c #E7D5A4",
"@. c #E8D5A4",
"#. c #E9D6A5",
"$. c #E6D6A9",
"%. c #E9D7A9",
"&. c #E9D8AC",
"*. c #E9DAB0",
/* pixels */
"; % = 5 c G n b J #.' N z D T T W #.X.D x z D N V ..} D m x V ! ",
"o * O 3 h B V _ +.o.U S D D N N C D T D D D N N  .[ D N D / o.' ",
"; ; = 6 d H / ) I G G H H J J J D D ! X.J D S / X.D M x G X.X.J ",
"; * @ > d J J V x k x J ) [ ( E F D J ] ! F D / S z z S ) X.Q H ",
"% * O 1 r z B x k x G ) ' W F N N H Q F D M M N z x L U P J U J ",
"* * ; w w p z B G ) X.' R M x B D D B z x N D D J L Z V P [ X.L ",
"; . %   7 s G  .O.+.[ R x k N F D x z N R W W H B x V J ) [ Q J ",
"% *   O q z  .) ! R T D V U J M z x F o.+./ D M B D H Q / H H U ",
"* : O & y S J S M N J / ..X.D x B D ! +.L B M D H H R R C x V B ",
"* *   X i z x g g x G ) +.! D D T D G D B H ] [ ! T D B z z z x ",
"* ; + 2 7 h B C H U  . .Q T T T D V D D J [ [ ` ! ( D x z x k J ",
"* ; *   i A D H L L H V M R ! ] ] R T T W W T T [ o.! D D D / o.",
": : ; = r x b S H D x B / +.%.X.H D ! ` T D B V ) X.' W T ! O.H ",
"* ; % 9 h G ] / D x S +.&.%.U B S O.X.J M x B V H Q R C V | V z ",
"; - @ 8 j n H B B D #.&.$.U V L %.X.J N M D ! ' ' ! D D ) H x N ",
"; # * 0 s s z V Q ' o.) L V G X.' T D D E [ / V x x B D N D F T ",
"; % = 8 p z L O.o.Q H H S L ) ! T D J ( ) Z z l B D D x n ! T T ",
"o * O & a U #.X.J G L L J J J T D H / U n z N T R H Z V D R N N ",
"; ; . , h U / J U ) / J H N C J H J H B N R ( O.O._ ! R T D H O.",
"; * O 2 y v H  .) J D V N V ) X.) H D J ' o.$.%.X.! D D D U o.H ",
"% * . 1 t h J ) H V B N H [ X.) V N R ` ' ` ` T D x x N J / S z ",
"* * - 3 t M D H V Z L ! ' ` ! N M ' #.#.[ T N N V H R ! J B z z ",
"; . + > f M S G G | ' W T D D D ! $.#.! T T R ] [ / J H V M N D ",
"% - - ; d B D ..$.U ! ! M B D F / ! B z D [ +.o.( / ) / T D V b ",
"* : . X y V J [ H L ] E D D N B D M z ] *.&.+./ H H ! E N x z N ",
"* * . $ r n ..X.) ] Q C M B x B C D [ *.&.X.D B v J X.H x x N D ",
"* ; % < s K $.$.[ H m z B D L U / J E ! W / V N R [ / D M D D D ",
"* ; % > c  .X.! M k x D Q [ +.X./ D N D ) +.J S V V D N N H J / ",
": : ; u n J N z z H ! ! [ _ / V x B D _ #.Q B B L H B x U X.X.o.",
"* ; 4 e r h k H X.#.[ [ ( H B x D R ' [ ` / J _ L N m J #.#.#.( ",
"; - O 4 a v / +.X.Q X.+.H N D T T ! ` #.%.#.J x z M Q %.%.#.! D ",
"; # - i B _ ) V b ) %.` D B F T T W #.#.! B k x M V X.#.! D x x "
};
