/* XPM */
static char *_012[] = {
/* columns rows colors chars-per-pixel */
"32 32 61 1 ",
"  c #C5AD7F",
". c #C6AE81",
"X c #C9AF81",
"o c #C7B182",
"O c #CCB484",
"+ c #CFB886",
"@ c #CEB789",
"# c #CFB98B",
"$ c #D0B785",
"% c #D3BA86",
"& c #D8BF87",
"* c #D4BD8A",
"= c #D8BF8A",
"- c #D4BF91",
"; c #DAC187",
": c #D6C08D",
"> c #DBC38C",
", c #DFC88D",
"< c #D7C192",
"1 c #DBC493",
"2 c #DEC993",
"3 c #DEC996",
"4 c #D7C398",
"5 c #D9C398",
"6 c #DBC798",
"7 c #DCC798",
"8 c #DECB99",
"9 c #DECB9A",
"0 c #E0C78C",
"q c #E3CB8E",
"w c #E1C990",
"e c #E3CE93",
"r c #E4CD93",
"t c #E1CB94",
"y c #E3CD94",
"u c #E4CE97",
"i c #E0C999",
"p c #E3CE9A",
"a c #E4CF9A",
"s c #E2CB9C",
"d c #E2CD9C",
"f c #E4CE9C",
"g c #E6D096",
"h c #E5D19B",
"j c #E3D09F",
"k c #E5D19E",
"l c #E6D29E",
"z c #E8D29F",
"x c #DFCEA1",
"c c #E1CEA0",
"v c #E3D0A2",
"b c #E6D1A0",
"n c #E7D4A1",
"m c #E4D2A4",
"M c #E7D5A4",
"N c #E8D4A0",
"B c #E9D6A5",
"V c #E7D6A9",
"C c #E9D7AA",
"Z c #E9D9AC",
"A c #E9DAB0",
/* pixels */
"e;%*ps#@3Bh=o;qqrNb>OO:=*vz;$+*y",
";+*ds**fMn8:>>===>q>>>=*ck>=>pnh",
"*2bi*1pd7<<12232>>yb3>:pb>%+<bb2",
"2hd13p3*+.O2dkae,>3jy,;p:oo:dbt2",
"3jjpy1*O.O<dhr,==2t,;%%=o+186383",
"1yhp*o+@<dbhw%O*>>%o+=>>21-*6vb1",
"pub2%=1cmMkw+.=,;Oo=wrr>*+*3dkt2",
"2uu;=8bdywq>*82%oO,nMp>%%>2ti118",
">rq=3j3:%=2pvb>+%>uM1%%>12ww=+**",
"pq=>t1+  +<dMy;>q;<>*1jkuq>%ooo+",
"k>%>2=%=18cctqqq>*;;2kkgua>OoO.3",
"3++3w,>1111**wyjjwqqrrqrkny>>>in",
"Oo<y>%@:1>o+pMCb2>ygq;%*dbhrqym1",
"O>ry8dkp>+:MZC8*:mb2%O%*2tw=*x*o",
"0qhCCb3*%>BZV8*1Cb2=%>uhhy>>d1+=",
"qgZV8*o*thnd1*<bhq>>ekp*+O%>=>,q",
"qNV:o+1mMt21:1duq>2ad-oX%;>O#yrq",
"kB>.*dMb3<16332q>1i8#o=qw1-*>w==",
"kw%=hnp38di31==2131*=wfmmfywq>1m",
"%*2rh23cd2>*=*dbd2>2hnVCby>>>8n2",
"o*pe%%td1**=1jbd*=wghggq;++=2p:O",
"*8k:O;>1*-1yhuy=%hBBkq==*1wy3*oo",
"3ke%;=:<4xhrq;;>yVNuqqwjkp31*%=>",
"*2%;=*>vV8yu%%;2pu%o>kMnapdp,>*@",
">%=;%:tk11ke>>&%>%ojAZMp11ye=+o=",
"=>q$*8bbdjt=%%+*=;kAZb>++2b2++=>",
"3u;O3MVVk2$o%>18p2euri*=wkp;%;>>",
"bq+>MMby%.O;tkMbi>=>dM2:**>==23p",
"a%=kBy=oo1yukfp*+%>fBt%*51*+8bbn",
">%>k3o.1bBkkf2%+;whkgi3f1=$8MBNa",
"+%q>%*pMbtbM2=;qqugNCN2+o%tCCNy;",
">q>%>kd*@dCg>%,qqrBBy%.+%*bNu;OO"
};
