/* XPM */
static char *_015[] = {
/* columns rows colors chars-per-pixel */
"32 32 110 2 ",
"   c #64882C",
".  c #688D2D",
"X  c #6F952F",
"o  c #6B8A32",
"O  c #718B38",
"+  c #6F9430",
"@  c #719632",
"#  c #759B33",
"$  c #789E33",
"%  c #749038",
"&  c #7C9C3A",
"*  c #76A036",
"=  c #7CA436",
"-  c #7DA837",
";  c #7CA538",
":  c #7EA939",
">  c #7B8D41",
",  c #7C9141",
"<  c #81A937",
"1  c #83AC3A",
"2  c #86B03A",
"3  c #8AB33C",
"4  c #8FB83D",
"5  c #849547",
"6  c #839C43",
"7  c #879848",
"8  c #8A9C4A",
"9  c #929E53",
"0  c #989759",
"q  c #949E58",
"w  c #9C9C5D",
"e  c #8CA847",
"r  c #92A64F",
"t  c #97A753",
"y  c #98A257",
"u  c #95A258",
"i  c #9DA15C",
"p  c #A4A85F",
"a  c #A29963",
"s  c #A7A267",
"d  c #A9AC69",
"f  c #B0A16F",
"g  c #B2AB6F",
"h  c #B2A171",
"j  c #BAAD74",
"k  c #BEAD7A",
"l  c #BEB176",
"z  c #BEB17D",
"x  c #C4AD7E",
"c  c #C2B17A",
"v  c #C4B87C",
"b  c #BFAF80",
"n  c #C6AE81",
"m  c #C9AF81",
"M  c #C6B484",
"N  c #CCB484",
"B  c #CFB985",
"V  c #CEB689",
"C  c #CEBA8B",
"Z  c #D0B785",
"A  c #D3BA86",
"S  c #D8BF87",
"D  c #D4BD8A",
"F  c #D8BF8A",
"G  c #D4BE91",
"H  c #DAC187",
"J  c #D6C08D",
"K  c #DBC38C",
"L  c #DFC88D",
"P  c #D7C292",
"I  c #DBC493",
"U  c #DBC594",
"Y  c #DAC496",
"T  c #DFC990",
"R  c #DDC997",
"E  c #D7C398",
"W  c #D9C398",
"Q  c #DECB99",
"!  c #DECB9A",
"~  c #DDCB9C",
"^  c #E0C78C",
"/  c #E0C98F",
"(  c #E2CB8E",
")  c #E0C992",
"_  c #E4CD93",
"`  c #E0CB95",
"'  c #E3CC94",
"]  c #E3CD95",
"[  c #E4CE97",
"{  c #E0CD99",
"}  c #E3CE9A",
"|  c #E3CE9C",
" . c #E2CE9F",
".. c #E6D096",
"X. c #E5D098",
"o. c #E3D09F",
"O. c #E6D29F",
"+. c #DFCEA1",
"@. c #E1CEA0",
"#. c #E3D1A0",
"$. c #E7D3A3",
"%. c #E6D4A2",
"&. c #E4D2A4",
"*. c #E7D5A4",
"=. c #E6D5A5",
"-. c #E8D5A4",
";. c #E7D6A9",
":. c #E9D7AA",
">. c #E9D9AC",
",. c #E9DAB0",
/* pixels */
"3 < 1 3 < 1 1 1 1 : 1 < 1 3 1 4 3 < 1 3 < < 1 2 1 : 1 < 1 3 1 4 ",
"* < # < < 2 4 2 1 1 2 1 3 = = 2 # < = : = 2 4 < 2 3 3 3 3 : - < ",
"# .   < 3 @ @ = $ = @ 1 = X @ ; @ # # = = # 3 + < = 1 1 @ : = o ",
"i i w O o 9 s > % 0 0 r u i g p 8 i & 5 t o o 6 7 , 5 6 q e & y ",
"M J C j g k k f a h b M M B B c c D v l c j j c x x c z z 8 d B ",
"P ] X.R B M N N D ~ #.T K D N A K K A x M D K K U U C M P Q  .P ",
"} [ $.I A F U @.&.*.O.) N n F L H N m F ) _ _ I A N D R  .O.` U ",
"I [ [ H F Q $. .] ) / K D Q T A M N L %.*.} K A A K I ` } P P Q ",
"K _ / F R o.R J D F T } #.$.K N A K [ *.U A A K I I ) ) F N D A ",
"} / F K ` I N x x N P  .*.] H K / H P K A I o.O.[ / K A M M M N ",
"O.K A K T F A F I ~ @.@.` / / / K D H H T O.O...[ [ K N M N n R ",
"R N B R ) L K P U U I D A ) ] o.o.) / / _ _ / _ O.%.] K K K } %.",
"N M P ] K A V J I K N A } *.:.$.I K ] ../ H A D  .$.X._ / ] &.P ",
"N K _ ] Q  .O.} K N J *.>.:.Q A J &.$.T A N A D I ` ) F D +.D M ",
"^ / X.:.:.$.R A A K *.>.;.Q D U :.$.T F D K [ X.X.] K K  .P N F ",
"/ ..>.;.Q A M D ` X.%. .U D P $.X./ K K ] O.} D N N A K F K L / ",
"/ -.;.J M N U &.*.` I P J U  .[ / K T [  .G M m A H K N C ] / / ",
"O.*.K n A  .*.$.R U U U U U T / K P } Q C M F / ) P G D K ) F F ",
"O.) A F X.%.} R ~  .} R P F F T I R I A F )  .&.&. .] ) / K P &.",
"A A I _ X.T R @. .U K D F D  .$. .I K T X.%.;.:.$.] K K K Q %.I ",
"M D } ] D A `  .P D A F I O.$. .D F ) ..X...../ H N N F U } J M ",
"A Q O.J N H K I D G U ] X.[ ] F A X.*.*.O./ F F D I ) ] R A M M ",
"R O.] A H F J P E +.X._ / H H K ] ;.-.[ / / ) o.O.} R P D D F K ",
"D T A H F A K #.;.Q ] [ A A H L } [ A M K O.*.%.[ }  .} / K D M ",
"K A F H A J ` O.P U O.] K K S A K D M o.,.>.*.} I I ] ] F N M F ",
"F K / Z D Q $.$. .o.` F A A N A F H O.,.>.$.K A B T $.I N N F K ",
"R [ H N R *.;.;.O.I Z M A K U Q } T ] [ _ } D F ) O.} H D H K K ",
"$./ N K *.*.$.] A n N H ` O.*.$.} K F H  .*.T J D D K F F I R } ",
"[ A F O.*.] F M M P ] [ O. .} D N A K  .*.` A A W I A N Q $.$.%.",
"K A K O.R M n P $.*.O.O.[ I A N H ) X.O...} R  .U F Z R *.*.-.[ ",
"N D / K A A } *.$.` $.*.I F H / / [ ..-.:.-.T N M D ` :.:.-.] H ",
"K / K A K O. .D V  .:...K A L / / _ *.*.[ A m N A D $.-.[ H N N "
};
