/* XPM */
static char *_011[] = {
/* columns rows colors chars-per-pixel */
"32 32 130 2 ",
"   c #749535",
".  c #739B34",
"X  c #799D35",
"o  c #7C9A3B",
"O  c #77A235",
"+  c #7BA536",
"@  c #7DA937",
"#  c #7EA63A",
"$  c #7EA938",
"%  c #80A537",
"&  c #80A837",
"*  c #83A53C",
"=  c #83AD39",
"-  c #89AF3E",
";  c #86B03A",
":  c #8AB43C",
">  c #8FB83C",
",  c #90B73E",
"<  c #92BA3D",
"1  c #839B44",
"2  c #8C9E4A",
"3  c #8D9B50",
"4  c #84A540",
"5  c #8BA546",
"6  c #87A940",
"7  c #8CAB43",
"8  c #8DA648",
"9  c #91A54C",
"0  c #93AA4B",
"q  c #8EB242",
"w  c #92B544",
"e  c #94BA41",
"r  c #95B14B",
"t  c #9BB44E",
"y  c #97A552",
"u  c #96AC52",
"i  c #9CAE54",
"p  c #9DB252",
"a  c #A1A35C",
"s  c #A3AC5B",
"d  c #A2B156",
"f  c #A0B853",
"g  c #AAB45E",
"h  c #AAA466",
"j  c #A5AC61",
"k  c #AFAF66",
"l  c #ADA768",
"z  c #B0A56A",
"x  c #B5AD6C",
"c  c #ADB362",
"v  c #ACBB62",
"b  c #B1BD63",
"n  c #B4B26A",
"m  c #B9B86C",
"M  c #B6A572",
"N  c #BAA774",
"B  c #B4AB71",
"V  c #BEAF75",
"C  c #BCAD79",
"Z  c #BAB472",
"A  c #BDB17B",
"S  c #C3AC7E",
"D  c #C2B37A",
"F  c #C8B37D",
"G  c #C3BA7D",
"H  c #CBB97D",
"J  c #AEC064",
"K  c #B4C267",
"L  c #BAC473",
"P  c #C8C57C",
"I  c #C5AE81",
"U  c #C9AF81",
"Y  c #C3B182",
"T  c #CCB483",
"R  c #CFBC86",
"E  c #CFB788",
"W  c #CDB889",
"Q  c #D1B785",
"!  c #D2BA86",
"~  c #D8BF87",
"^  c #D4BD8A",
"/  c #D8BF89",
"(  c #D4BF91",
")  c #C5C782",
"_  c #CFC58E",
"`  c #CBCA89",
"'  c #DAC187",
"]  c #D7C18D",
"[  c #DBC38C",
"{  c #DFC88D",
"}  c #D7C192",
"|  c #DBC493",
" . c #DEC994",
".. c #D7C398",
"X. c #DCC798",
"o. c #DECA99",
"O. c #E0C78C",
"+. c #E2CB8E",
"@. c #E5CD8F",
"#. c #E1C991",
"$. c #E3CE93",
"%. c #E4CD93",
"&. c #E1CB94",
"*. c #E3CD94",
"=. c #E5CE97",
"-. c #E0C999",
";. c #E2CE9A",
":. c #E4CF9A",
">. c #E2CB9C",
",. c #E3CD9C",
"<. c #E4CE9C",
"1. c #E6D096",
"2. c #E5D19B",
"3. c #E3D09F",
"4. c #E5D19E",
"5. c #E6D29E",
"6. c #DFCEA1",
"7. c #E1CEA0",
"8. c #E3D0A2",
"9. c #E6D1A0",
"0. c #E4D2A0",
"q. c #E7D4A1",
"w. c #E4D2A4",
"e. c #E7D5A4",
"r. c #E8D4A0",
"t. c #E9D6A5",
"y. c #E7D6A9",
"u. c #E8D7AA",
"i. c #E9D9AC",
"p. c #E9DAB0",
/* pixels */
"$.' ! ^ ;.>.W E  .t.2./ T ' +.+.%.r.9.[ T T ] / ^ ,.o.m g : = > ",
"' T ^ ,.>.^ ^ <.e.q.o.] [ [ / / / [ @.[ [ [ / ^ 7.3.R c > $ $ ; ",
"^  .9.-.^ | ;.,.X.} } |  . . . .] [ *.9. .[ ] ;.9.[ F M i @ = & ",
" .2.,.|  .;. .^ T I T  .,.4.:.$.{ [  .3.*.{ ' ;.] T S C i = : = ",
" .3.3.;.*.| ^ T I T } ,.2.%.{ / /  .&.{ ' ! ^ / T T ^ j p > $ ; ",
"| *.2.;.^ T T E } ,.9.2.#.^ T ^ [ [ ! T T / [ [  .| Y B t : > : ",
";.=.9. .! / | 7.w.e.4.#.T I / { ' T T / #.%.%.[ ^ T Y A u - = > ",
" .=.=.' / o.9.,.*.#.+.] ^ o. .! T T { q.e.;.] ! ! ] / Z u . . ; ",
"] %.+./  .3. .] ^ /  .;.8.9.] T ! [ =.e.| ! ! ] |  .[ D 7 : > ; ",
";.+./ ] &.| T S S T } ,.e.*.' [ +.' } [ ^ | 3.4.=.+.' x 0 $ $ : ",
"4.] ! [  ./ ! / | o.7.7.&.+.@.+.[ ^ ' '  .4.4.1.=.:.! z 0 $ + = ",
" .T E  .#.{ [ | | | | ^ ! #.*.3.3.#.+.+.%.%.@.%.4.9.Z 5 - , : $ ",
"T T | *.] ! E ] | ] T E ;.e.u.9. .[ *.1.+.' ! ^ ,.4.] k = = O = ",
"T [ %.*.o.,.4.;.] T ] e.i.u.o.^ ] w.9. .! T ! ^  .&.[ V 6 + : ; ",
"O.@.2.u.u.9. .^ ! [ t.i.y.o.^ | u.9. ./ ^ [ =.2.2.*.] D p > < > ",
"@.1.i.y.o.^ T ^ &.2.q.,.| ^ } 9.2.+.[ [ $.4.;.^ T T T D a - = = ",
"@.r.y.] T T | w.e.&. .| } | ,.=.+.[  .:.,.( T U ! ' ] M 9 & = > ",
"4.t.] I ^ ,.e.9. .} | X. . . .+.] | -.o.W T / +.#.| W h 2 $ $ ; ",
"4.#.! / 2.q.;. .o.,.-. .| / /  .|  .| ^ / #.:.w.w.,.G 9 1 @ = & ",
"! ^  .%.2. . .7.,. .] ^ / ^ ,.9.,. .]  .2.q.y.u.9.#.n 9 o & : = ",
"T ^ ;.$.^ ! &.,.| ^ ^ / | 3.9.,.^ / #.1.2.1.1.+.' T N 9 = > = ; ",
"^ o.4.] T ' [ | ^ ( | *.2.=.*./ ! 2.t.t.4.+./ / ^ R Z y X : > : ",
" .4.$.! ' / ] } ..6.2.%.@.' ' [ *.y.r.=.+.+.#.3.4.G 8 9 . = = > ",
"^  .! ' / ^ [ 8.y.o.*.=.! ! ' { ;.=.! T ] 4.e.q.| A 3 O + . . ; ",
"[ ! / ' ! ] &.4.| | 3.$.[ [ ~ ! [ ^ T 3.p.i.e. .D 9 X > = : > ; ",
"/ ] { Q ^ o.9.9.,.3.&./ ! ! T ! / ' 4.p.i.3.R l h 9 < > : @ $ : ",
" .P c D [ 9.` )  .] T D ! ] | o.;. .$.$.#.b y o 6 X : > : @ + = ",
"v 6 X * 5 J w 7 f s a * v K L _ -./ H s G f -   > : X @ = > : $ ",
"e : & * X & & = $ O * * = - # p D s d   1 4 $ $ @ O + + & = O = ",
"; > : $ & = @ . = : & > = + : : r w q @ @ = @ . = : & : = + : ; ",
"> : = : : : & ; : = : > > : < > > : = : : : & ; : = : > > : < > ",
"> $ = ; $ O $ % & = : = O ; = = > $ = ; $ O $ % & = : = O ; = = "
};
