/* XPM */
static char *_014[] = {
/* columns rows colors chars-per-pixel */
"32 32 104 2 ",
"   c #739C34",
".  c #77A135",
"X  c #79A536",
"o  c #7DA937",
"O  c #7EA938",
"+  c #82AD39",
"@  c #89AF3E",
"#  c #86B03A",
"$  c #8AB33C",
"%  c #8FB83C",
"&  c #90B73E",
"*  c #90BA3D",
"=  c #83A640",
"-  c #8AA745",
";  c #8DAB44",
":  c #90AE44",
">  c #91A64D",
",  c #94AD4A",
"<  c #8FB044",
"1  c #91B045",
"2  c #9BB44E",
"3  c #98B94A",
"4  c #96AC52",
"5  c #9CAC55",
"6  c #9CB252",
"7  c #A1A45C",
"8  c #A0AD5E",
"9  c #A0B352",
"0  c #A3B75A",
"q  c #AAB45E",
"w  c #ABA367",
"e  c #A5AC61",
"r  c #AFAF66",
"t  c #B0A66B",
"y  c #B3AB6A",
"u  c #ABB162",
"i  c #B9B86C",
"p  c #B6A672",
"a  c #B4AB71",
"s  c #BCAC76",
"d  c #BCAD79",
"f  c #BAB473",
"g  c #BFB17D",
"h  c #C3AD7D",
"j  c #C2B776",
"k  c #C4BA77",
"l  c #C3B27B",
"z  c #C8B37D",
"x  c #C6AE80",
"c  c #C9AF81",
"v  c #C3B282",
"b  c #CCB483",
"n  c #CFB886",
"m  c #CEB789",
"M  c #CFB98A",
"N  c #D1B785",
"B  c #D2BA86",
"V  c #D8BF87",
"C  c #D4BD8A",
"Z  c #D8BF89",
"A  c #D4BE91",
"S  c #DAC187",
"D  c #D7C08D",
"F  c #DBC38C",
"G  c #DFC88D",
"H  c #D7C192",
"J  c #DBC493",
"K  c #DEC994",
"L  c #D7C398",
"P  c #DBC598",
"I  c #DECA99",
"U  c #E0C78C",
"Y  c #E2CB8E",
"T  c #E5CD8F",
"R  c #E1C991",
"E  c #E3CE93",
"W  c #E4CD93",
"Q  c #E1CB94",
"!  c #E3CD94",
"~  c #E4CE97",
"^  c #E0C999",
"/  c #E3CE9A",
"(  c #E4CF9A",
")  c #E2CB9C",
"_  c #E2CD9C",
"`  c #E4CE9C",
"'  c #E6D096",
"]  c #E5D19B",
"[  c #E3D09F",
"{  c #E5D19E",
"}  c #E6D29E",
"|  c #DFCEA1",
" . c #E1CEA0",
".. c #E3D0A2",
"X. c #E6D1A0",
"o. c #E7D4A1",
"O. c #E4D2A4",
"+. c #E7D5A4",
"@. c #E8D4A0",
"#. c #E9D6A5",
"$. c #E7D6A9",
"%. c #E8D7AA",
"&. c #E9D9AC",
"*. c #E9DAB0",
/* pixels */
"E S B C / ) M m K #.] Z b S Y Y W @.X.F b b D Z C _ I i q $ + $ ",
"S n C _ ) C C ` +.o.I D F F Z Z Z F T F F F Z C  .[ n u $ O O # ",
"C K X.^ C J / _ P H H J K K K K D F ! X.K F D / X.F z p 5 o + + ",
"K ] _ J K / K C n x b K _ { ( E G F K [ ! G S / D b h d 8 + $ + ",
"K [ [ / ! J C b x b H _ ] W G Z Z K Q G S V C Z b n C e 6 $ + # ",
"J ! ] / C b n m H _ X.] R C b C F F B b n Z F F K J v a 2 # % # ",
"/ ~ X.K B Z J  .O.+.{ R n x Z G S b c Z R W W F C n v g 4 + + $ ",
"K ~ ~ S Z I X._ ! R Y D C I K B b b F o.+./ D B B D Z f 4     # ",
"D W Y Z K [ K D C Z K / ..X.D n B F ~ +.J B B D J K F l ; # % # ",
"/ Y Z D Q J n h h n H _ +.! S F Y S H F C J [ { ~ Y S y , O O # ",
"{ D B F K Z B Z J I  . .Q Y T Y F C S S K { { ' ~ ( V t , O X + ",
"K n n K R G F J J J J C B R ! [ [ R Y Y W W T W { X.f - @ & # O ",
"b b J ! D B m D J D b n / +.%.X.K F ! ' Y S B C _ { D r + + . + ",
"b F W ! I _ { / D n D +.&.%.I C D O.X.K B b B C K Q F s ; X # # ",
"U T ] %.%.X.K C B F #.&.$.I C J %.X.K Z C F ~ ] ] ! D l 6 $ * % ",
"T ' &.$.I C b C Q ] o._ J C H X.] Y F F E { / C n b b l 7 @ + + ",
"T @.$.D b n J O.+.Q K J H J _ ~ Y F K ( _ A b c n S D t ; $ + $ ",
"{ #.D x C _ +.X.K H J P K K K Y D J ^ I M b Z Y R J A f 9 + O # ",
"{ R B Z ] o./ K I _ ^ K J Z Z K J K J C Z R ( O.O.` ! j , O + + ",
"B C K W ] K K  ._ K D C Z C _ X._ K D K ] o.$.%.X.R B y > + $ + ",
"b C / E C B Q _ J C C Z J [ X._ C Z R ' ] ' ' Y S b s 7 : $ + # ",
"C I { D b S F J C A J ! ] ~ ! Z B ] #.#.{ Y Z Z C J Z l u $ % # ",
"K { E B S Z D H L | ] W T S S F ! $.@.~ Y Y R [ { / K s - + + $ ",
"C K B S Z C F ..$.I ! ~ B B S G / ~ B b D { +.o.( / _ z 5     # ",
"F B Z S n D Q { J J { E F F V B F C b [ *.&.+./ J J ! k , $ % # ",
"Z D Y N C I X.X._ [ Q Z B B n C Z S { *.&.X.F n n K K u < o O # ",
"K ~ S b K +.$.$.{ K N b B D J I / K E ~ W ^ C Z R { C y 1 O X + ",
"X.Y n F +.+.X.! B x b S Q { +.X.^ D Z S _ +.K D C C b y , % # O ",
"( B Z { #.! Z b b J ! ~ { ` / C n B F ` #.Q B C L J z w ; + . + ",
"D B F { K b x J X.#.{ { ` K B n S R ] { ' ^ K ` J Z h u 6 X # # ",
"n C Y F B C / +.X.Q X.+.K Z S Y T ~ ' @.%.@.K n b B l 0 3 $ * % ",
"F Y F B D { _ C m _ %.' F B G T T W #.#.! B x n B z v u = # + + "
};
