/* XPM */
static char *_016[] = {
/* columns rows colors chars-per-pixel */
"32 32 131 2 ",
"   c #6A8E2E",
".  c #6B8933",
"X  c #6F9430",
"o  c #719433",
"O  c #749C33",
"+  c #7A9F36",
"@  c #769539",
"#  c #7C973C",
"$  c #7C9C3B",
"%  c #76A136",
"&  c #7BA436",
"*  c #7EA937",
"=  c #7BA338",
"-  c #7EA938",
";  c #7C9141",
":  c #809E3F",
">  c #81A737",
",  c #81A937",
"<  c #82A53C",
"1  c #83AC3A",
"2  c #88AF3E",
"3  c #86B03A",
"4  c #8BB43C",
"5  c #8FB83D",
"6  c #92BA3E",
"7  c #849547",
"8  c #849C43",
"9  c #879848",
"0  c #8A9C4A",
"q  c #929E4F",
"w  c #8C9A51",
"e  c #949E58",
"r  c #85A142",
"t  c #8BA345",
"y  c #8DAA46",
"u  c #94A34C",
"i  c #93AB4A",
"p  c #94B24F",
"a  c #97A753",
"s  c #98A257",
"d  c #9FAF57",
"f  c #9CA55B",
"g  c #A5AC62",
"h  c #ACAC64",
"j  c #AEA569",
"k  c #ABAC69",
"l  c #B2A56C",
"z  c #B4AC6D",
"x  c #ACB367",
"c  c #B5B06D",
"v  c #B6A672",
"b  c #B4AC74",
"n  c #BAAC73",
"m  c #BCA778",
"M  c #BCAF79",
"N  c #BCB273",
"B  c #B7B778",
"V  c #BEB17D",
"C  c #C1AF76",
"Z  c #C3AD7D",
"A  c #C2B17B",
"S  c #CAB67E",
"D  c #C4B87C",
"F  c #C6AE81",
"G  c #C9AF81",
"H  c #C4B482",
"J  c #CCB484",
"K  c #C3B983",
"L  c #CDBA85",
"P  c #CCB589",
"I  c #CDBB8B",
"U  c #D0B785",
"Y  c #D2BA86",
"T  c #D8BF87",
"R  c #D5BA8A",
"E  c #D1BC88",
"W  c #D7BE8A",
"Q  c #D3BC8D",
"!  c #D4BD8E",
"~  c #D8BF8B",
"^  c #D8BF8C",
"/  c #D4BE91",
"(  c #D7C18B",
")  c #D7C08D",
"_  c #D9C28A",
"`  c #DBC38B",
"'  c #D9C18C",
"]  c #DBC38C",
"[  c #DAC38E",
"{  c #DDC58C",
"}  c #DEC78D",
"|  c #DFC98E",
" . c #D6C392",
".. c #D6C293",
"X. c #DBC390",
"o. c #DAC393",
"O. c #DBC594",
"+. c #DAC496",
"@. c #DCC795",
"#. c #DFC990",
"$. c #DCC897",
"%. c #D7C398",
"&. c #D9C398",
"*. c #DDC998",
"=. c #DECA9A",
"-. c #DECB9A",
";. c #E2CB8E",
":. c #E0C991",
">. c #E5CD92",
",. c #E4CD93",
"<. c #E0CB95",
"1. c #E4CF96",
"2. c #E0CD99",
"3. c #E3CE9C",
"4. c #E2CF9E",
"5. c #E6D096",
"6. c #E5D19C",
"7. c #E5D09E",
"8. c #DFCEA1",
"9. c #E2CFA1",
"0. c #E3D0A2",
"q. c #E4D1A0",
"w. c #E5D3A3",
"e. c #E6D4A2",
"r. c #E6D4A4",
"t. c #E6D5A5",
"y. c #E8D5A4",
"u. c #E6D6A9",
"i. c #E9D7A9",
"p. c #E9D8AC",
"a. c #E9DAB0",
/* pixels */
"4 , 1 4 , 1 1 1 , - 1 1 1 4 1 5 4 , 2 4 , , 1 3 1 - 1 , 1 4 1 5 ",
"% 1 , , , 4 5 3 3 3 4 1 4 - - 1 O , * - & 3 5 , 3 3 3 3 3 - * , ",
"4 5 3 4 6 6 6 5 6 5 6 1 & % O & o O O * * O 3 X , & 1 1 o - & . ",
"5 1 1 , , 3 4 3 1 * o & w g f N 0 f $ 7 a . . 8 9 ; 7 8 e y $ s ",
", 1 * > 1 1 3 O O o . f A S S S A E D N A n n A Z Z A V V 0 k L ",
"1 1 5 6 6 1 * o @ f k L _ Y J Y } } Y Z J Y } } +.+.I P  .*.4.X.",
"4 O 1 , 4 1   @ s K I ( J F W | _ J G W :.,.,.@.Y J ! $.4.7.<.+.",
", 3 3 5 * O y b L _ } ' ! *.#.Y J J } e.t.2.' Y Y ' @.<.2.X.X.*.",
"1 6 3 4 1 < k A Y W #.2.0.q.' J Y } 1.t.+.Y R ' X.@.:.:.^ J ! Y ",
"1 3 - & 1 i j m Z J  .4.t.1._ } ;._  .' Y X.7.7.1.;._ Y J J J J ",
"1 4 1 & $ h C Y X.*.9.9.<.;.;.;.' E _ _ #.7.7.5.1.4.' J J J F $.",
"1 4 , r h C S ! +.+.X.E R :.1.7.7.:.;.;.,.,.;.,.7.e.1.' } } 2.e.",
"6 6 1 t z v Z ! X.' J Y 2.t.i.q.@.} 1.5.;._ Y ! 4.q.7.,.;.1.q.X.",
"1 1 + g H  .7.2.' J ) t.p.i.*.Y ) q.q.#.Y J Y ! @.<.:.~ ! 8.! J ",
"5 1 8 I *.q.$.Y Y ' y.p.u.*.Q +.i.q.#.W Y } 1.7.7.1.' ' 4.X.J W ",
"5 - p B E Y J Q <.7.e.4.+.!  .q.7.;.} } ,.7.2.! J J Y } W } | ;.",
"4 , 2 d v J +.q.e.<.@.X.) +.4.1.;.} #.4.4./ J G Y _ } J I 1.;.;.",
"% 1 * < n *.t.q.$.X.+.+.+.+.#.;.' X.2.*.P J W ;.:.X./ ! } :.W W ",
"4 5 O 0 D *.2.$.*.4.2.$.X.W ~ #.X.$.X.Y W :.4.q.t.4.1.:.;.' X.q.",
"5 1 * t z L @.9.4.+.' ! W ! 4.q.4.@.' #.7.e.u.i.q.1.} } ' *.e.@.",
", 1 O r l A $.4.X.! Y W X.7.q.4.! W :.5.7.5.5.;._ J J W +.2.) J ",
"1 1 3 u l Y } X.! / +.1.7.1.1.W R 7.y.y.7.;.W W ! X.:.1.$.Y H J ",
"4 O * 9 C Y (  .%.8.7.,.;._ _ _ 1.u.e.1.;.;.:.7.7.2.$.X.E Y W ' ",
", 3 3 5 N Y ' 0.u.*.1.1.Y Y _ | 2.1.Y J ' 7.t.e.4.2.4.2.;.' ! P ",
"1 6 O # z E $.7.X.+.7.,.} } T Y } Y J 7.a.p.t.2.X.X.1.,.W J J W ",
"1 1 O : j I 0.q.4.7.1.~ Y Y J Y ~ _ 7.a.p.q.' Y L #.q.@.J J W } ",
"1 4 , q M  .u.u.7.@.U J Y ' +.*.2.#.,.1.,.2.Q W :.7.2._ Y _ } ' ",
"1 4 , 8 K 9.q.1.R F J _ <.7.t.q.2.' W _ 4.t.#.) ! ! ' W W @.$.2.",
"6 6 5 x I #.W J J X.1.1.7.4.2.! J Y ' 4.y.<.Y Y &.X.Y J *.q.q.e.",
"1 5 i g h A F X.q.y.7.7.4.@.Y J _ :.7.7.5.2.$.4.+.W U $.t.y.e.4.",
"5 3 = i n L 2.t.q.<.q.t.@.W _ ;.;.1.5.e.i.e.#.J J Y <.i.i.e.1._ ",
"5 - 3 c Y 4.4.! P 4.i.5.} Y | ;.;.,.y.y.1.Y F J Y ! q.e.1._ J U "
};
