/* XPM */
static char *_017[] = {
/* columns rows colors chars-per-pixel */
"32 32 125 2 ",
"   c #64882C",
".  c #688D2D",
"X  c #6E932F",
"o  c #6C8E31",
"O  c #718B38",
"+  c #719631",
"@  c #749C33",
"#  c #789E34",
"$  c #769239",
"%  c #7C923E",
"&  c #779838",
"*  c #7F983F",
"=  c #77A136",
"-  c #7BA536",
";  c #7DA937",
":  c #7DA639",
">  c #7EA938",
",  c #7B8D41",
"<  c #7F9742",
"1  c #80A636",
"2  c #80A937",
"3  c #82A53C",
"4  c #83AD39",
"5  c #86B03A",
"6  c #8AB33C",
"7  c #8FB83C",
"8  c #91BA3D",
"9  c #879F43",
"0  c #879948",
"q  c #8C994C",
"w  c #949E54",
"e  c #989759",
"r  c #9C9C5D",
"t  c #84A340",
"y  c #89A444",
"u  c #8DAB45",
"i  c #90AE44",
"p  c #92A64E",
"a  c #93AD4A",
"s  c #8FB044",
"d  c #91B045",
"f  c #98B94A",
"g  c #9CA955",
"h  c #95A258",
"j  c #9CA15D",
"k  c #9AB153",
"l  c #A3A45D",
"z  c #A4A85F",
"x  c #A0B552",
"c  c #A3B75A",
"v  c #A29963",
"b  c #A7A267",
"n  c #AAA366",
"m  c #B0A46E",
"M  c #B2AA6C",
"N  c #AAB162",
"B  c #B2A171",
"V  c #BAAC74",
"C  c #BEAD7A",
"Z  c #BCB273",
"A  c #C4AE7D",
"S  c #C2B776",
"D  c #C4BA77",
"F  c #C4B27C",
"G  c #CAB47E",
"H  c #CAB87E",
"J  c #BFAF80",
"K  c #C6AE81",
"L  c #C9AF81",
"P  c #C4B585",
"I  c #CCB483",
"U  c #CEB985",
"Y  c #CEB689",
"T  c #CDBA89",
"R  c #D1B785",
"E  c #D2BA86",
"W  c #D8BF87",
"Q  c #D4BD8A",
"!  c #D8BF8A",
"~  c #D4BE91",
"^  c #DAC187",
"/  c #D6C08D",
"(  c #DBC38C",
")  c #DFC88D",
"_  c #D7C191",
"`  c #D7C193",
"'  c #D7C393",
"]  c #D9C490",
"[  c #DDC591",
"{  c #DBC594",
"}  c #DFC990",
"|  c #DDC997",
" . c #D7C398",
".. c #D9C398",
"X. c #DECB99",
"o. c #DDCB9C",
"O. c #E0C78C",
"+. c #E0C98F",
"@. c #E3CB8E",
"#. c #E0C992",
"$. c #E4CD93",
"%. c #E0CB96",
"&. c #E3CC94",
"*. c #E3CD95",
"=. c #E4CE97",
"-. c #E0CD99",
";. c #E3CE9A",
":. c #E2CE9F",
">. c #E6D096",
",. c #E5D098",
"<. c #E3D09F",
"1. c #E6D29E",
"2. c #E6D29F",
"3. c #DFCEA1",
"4. c #E1CEA0",
"5. c #E3D1A0",
"6. c #E7D3A3",
"7. c #E6D4A2",
"8. c #E4D2A4",
"9. c #E7D5A4",
"0. c #E8D5A5",
"q. c #E7D6A9",
"w. c #E8D7AA",
"e. c #E9D9AC",
"r. c #E9DAB0",
/* pixels */
"6 2 4 6 2 4 4 4 4 > 4 2 4 6 4 7 6 2 4 6 2 2 4 4 2 > 4 2 4 6 4 7 ",
"= 2 @ 2 2 5 7 5 4 4 5 4 6 - - 5 = 4 2 2 2 6 7 5 5 6 6 4 6 > > 5 ",
"@ .   2 6 + + - # = + 4 - X + : 6 - @ 2 8 8 8 7 8 7 8 5 2 ; 4 2 ",
"j j r O o w b , $ e e p h j M z V w j < & X 4 6 4 > 4 2 = 4 6 4 ",
"P / T V M C C m v B J P I U U F A T E F z q * - = - 7 1 4 7 4 5 ",
"' *.,.| T I I I Q o.5.} ( Q I E ( ( E A A F Z : 2 5 6 8 7 6 7 6 ",
";.=.6.[ E ! { 4.8.9.2.#.I K ! ) ^ I L ! ( Q Z 0 $ + - 4 - 4 4 7 ",
"[ =.=.^ ! X.6.:.*.#.+.( Q X.} E I I ( 7.9.| Q F V y # = - + @ 5 ",
"( $.+.! | <.| / Q ! } ;.5.6.( I E ( =.9.{ E E ! E Z q 1 4 6 7 5 ",
";.+.! ( %.] I A A I ' :.9.;.^ ( +.^ ' ( E ] <.2.*.G V t 5 ; > 6 ",
"2.( E ( } ! E ! ] o.4.4.%.+.+.+.( Q ^ ^ } 2.2.>.=./ V y 4 ; - 4 ",
"| I T | #.) ( ' { { ] Q E #.*.<.<.#.+.+.$.$.+.$.2.6.T M & 7 6 > ",
"I I ' *.( E Y / ] ( I E ;.9.w.6.[ ( *.>.+.^ E Q :.2.%.H % > = 4 ",
"I ( $.*.o.:.2.;.( I / 9.e.w.X.E / 8.6.} E I E Q [ %.} Z 9 - 6 5 ",
"O.+.,.w.w.6.| E E ( 0.e.q.X.Q { w.6.} ! Q ( =.,.,.*.! Z x 6 8 7 ",
"+.>.e.q.X.E I Q %.,.7.:.{ Q ' 6.,.+.( ( *.2.;.Q I I G F n 3 4 4 ",
"+.7.q./ I I { 8.9.%.{ ' / { :.=.+.( } =.:.~ I L T ^ / m u 6 4 7 ",
"2.0.( K E :.9.6.| { { { { { } +.( ' ;.X.T I ! +.#.' ~ Z x 2 > 5 ",
"2.#.E ! ,.7.;.| o.:.;.| ' ! ! } ] | ] E ! #.;.8.8.;.*.S a > 4 2 ",
"E E [ $.,.} | 4.:.{ ( Q ! Q :.6.:.[ ( } ,.7.q.w.6.#.E M p 2 6 4 ",
"I Q ;.*.Q E %.:.' Q E ! ] 2.6.:.Q ! #.>.,.>.>.+.^ I V l i 7 4 5 ",
"E X.2./ I ^ ( ] Q ~ { *.,.=.*.! E ,.0.0.2.+.! ! Q ] ! F N 6 7 6 ",
"| 2.*.E ^ ! / '  .3.,.$.+.^ ^ ( *.q.7.=.+.+.#.<.2.;.} V y 4 > 7 ",
"Q } E ^ ! E ( 5.q.X.*.=.E E ^ ) ;.=.E I ( 2.9.7.=.;.:.F g @ @ 5 ",
"( E ! ^ E / %.2.' { 2.*.( ( W E ( Q I <.r.e.9.;.] ] *.D a 6 7 5 ",
"! ( +.R Q o.6.6.:.<.%.! E E I E ! ^ 2.r.e.6.( E T [ | N s ; > 6 ",
"| =.^ I | 9.q.q.2.[ R I E ( { X.;.} *.=.$.;.Q ! #.2.Q M d > - 4 ",
"6.+.I ( 9.9.6.*.E K I ^ %.2.9.6.;.( ! ^ :.9.} / Q Q I M a 7 6 > ",
"=.E ! 2.0.*.! I I ' *.=.2.;.;.Q I E ( ;.0.%.E E ..] F n u 4 = 4 ",
"( E ( 2.| I K ' 6.0.2.2.=.[ E I ^ #.,.2.>.;.| ;.{ ! A N k - 6 5 ",
"I Q +.( E E ;.9.6.%.6.9.[ ! ^ +.+.=.>.7.w.7.} I I E F c f 7 8 7 ",
"( +.( E ( 2.:.Q Y :.w.>.( E ) +.+.$.0.0.=.E K I E F P N t 5 4 4 "
};
