/* XPM */
static char *_010[] = {
/* columns rows colors chars-per-pixel */
"32 32 121 2 ",
"   c #729633",
".  c #739C34",
"X  c #7A9C35",
"o  c #7B973D",
"O  c #7E9E3B",
"+  c #76A236",
"@  c #7CA436",
"#  c #7EA937",
"$  c #7EA539",
"%  c #7EA938",
"&  c #80A537",
"*  c #80A837",
"=  c #81A439",
"-  c #83AD39",
";  c #88AD3D",
":  c #86B03A",
">  c #8BB43C",
",  c #8EB83C",
"<  c #92BA3E",
"1  c #839C42",
"2  c #87A142",
"3  c #8AA544",
"4  c #85A940",
"5  c #8CAC45",
"6  c #90A64E",
"7  c #94AC4C",
"8  c #8EB043",
"9  c #92B343",
"0  c #94B845",
"q  c #94B049",
"w  c #9BB34E",
"e  c #99A655",
"r  c #9BAC53",
"t  c #9BA758",
"y  c #9BB152",
"u  c #A3AC57",
"i  c #A0A959",
"p  c #A1B254",
"a  c #A3B35A",
"s  c #A5BA5A",
"d  c #A9A166",
"f  c #ACAC64",
"g  c #B3AC6E",
"h  c #ADB164",
"j  c #B8BD67",
"k  c #B4B36B",
"l  c #B5BA6B",
"z  c #B4A372",
"x  c #B6AF76",
"c  c #BAAD72",
"v  c #BDAB79",
"b  c #B7B270",
"n  c #B9B371",
"m  c #C5AD7F",
"M  c #C3B27C",
"N  c #CBB57E",
"B  c #C2BB7B",
"V  c #CABF7F",
"C  c #BBC26E",
"Z  c #BEB582",
"A  c #C6AE81",
"S  c #C9AF81",
"D  c #C7B383",
"F  c #CCB484",
"G  c #C4B880",
"H  c #CFBA82",
"J  c #CFB789",
"K  c #CEBA8B",
"L  c #D0B784",
"P  c #D3BB86",
"I  c #D8BF87",
"U  c #D0B788",
"Y  c #D4BD8A",
"T  c #D8BF8A",
"R  c #D4BF91",
"E  c #CEC787",
"W  c #CEC98A",
"Q  c #D7C085",
"!  c #D6C08E",
"~  c #DBC48C",
"^  c #D7C988",
"/  c #DFC88E",
"(  c #D7C192",
")  c #DBC593",
"_  c #DEC994",
"`  c #D6C398",
"'  c #DBC798",
"]  c #DCC798",
"[  c #DFCB98",
"{  c #DECA9B",
"}  c #E3CB8E",
"|  c #E1C990",
" . c #E2CC93",
".. c #E4CD93",
"X. c #E1CB94",
"o. c #E3CC94",
"O. c #E1CE97",
"+. c #E0CC9A",
"@. c #E2CE9A",
"#. c #E4CF9A",
"$. c #E3CF9F",
"%. c #E4CE9C",
"&. c #E5D096",
"*. c #E5D09A",
"=. c #E3D09E",
"-. c #E5D19E",
";. c #E5D29E",
":. c #E8D29F",
">. c #DFCEA1",
",. c #E3CFA1",
"<. c #E3D0A2",
"1. c #E5D3A2",
"2. c #E7D4A1",
"3. c #E4D2A4",
"4. c #E7D5A4",
"5. c #E8D4A0",
"6. c #E9D6A5",
"7. c #E7D6A9",
"8. c #E8D7AA",
"9. c #E9D8AC",
"0. c #E9DAB0",
/* pixels */
"> * ; 8 G ( K J _ 6.*.I D ~ } } ..5.1.~ F D ~ I I <.:.~ L F T O.",
"+ - @ 6 B U Y %.4.2.[ ! ~ ~ I I T ~ } ~ ~ ~ I I ,.-.~ I ~ @.2.*.",
"> , ; q n ) @.$.] ( ( ) ) _ _ _ ~ ~ O.1._ ~ ! @.<.~ P F ( 1.1._ ",
", - $ 1 n _ _ Y F A F _ $.-.#. ./ ~ _ =.O.~ ~ @.! D D Y $.1.X.) ",
"* - @ 2 f D U F A F ( $.*.../ I I ) X./ ~ P P I D F ` [ ' _ [ _ ",
"- - , p p z D U ( $.1.*.| P F U ~ ~ U D F I ~ ~ _ ` R Y ' -.1.` ",
"> . * . r v ( ,.3.4.-.| F A I / ~ F D I | ....~ U F Y _ $.-.X._ ",
"* -   @ i D ,.$.O.| } ~ Y [ _ P D F / 2.4.@.~ U U ~ ) X.@.) ) [ ",
"- < @ = g ! _ ! P I _ @.<.1.~ F U ~ O.4.` U P ~ ) ) | | T F Y U ",
"- -   o k D F m m F ( $.4.O.~ ~ } ~ ( ~ U ) =.-.O.} ~ U D D D F ",
"- > # 3 e M U T ) [ ,.,.X.} } } ~ Y ~ ~ _ -.-.&.O.#.~ F D F A _ ",
"- > -   k Q ~ ) ` ` ) Y P | O.=.=.| } } ....} ..-.2.O.~ ~ ~ @.2.",
"< < , ; f F J ! ) ~ F U @.4.8.1.) ~ O.&.} ~ U Y $.1.*...} O.3.) ",
"- , * t M ( =.@.~ F ! 4.9.8.[ U ! 3.1._ P F U Y ) X.| T Y >.Y D ",
", > $ r Z K ) U U ~ 6.9.7.[ Y ` 8.1._ I P ~ O.*.*.O.~ ~ $.) F I ",
", % - y v v D Y X.*.2.$.` Y ( 1.*.} ~ ~  .-.@.Y F F U ~ I ~ / } ",
"> . 3 g v F ` 3.2.X.) ) ! ` $.O.} ~ _ #.$.R D S U ~ ~ F K O.} } ",
"+ @ 3 d v @.4.1._ ( ` ` _ _ _ } ~ ) @.[ K D I } | ) R Y ~ | I I ",
"> , > y B =.@._ [ $.@._ ) I T _ ) _ ) U I | #.3.3.%.O.| } ~ ) 3.",
", - = 1 b ! _ ,.$._ ~ Y I Y $.1.$.) ~ _ *.2.7.8.1.O.~ ~ ~ [ 2.) ",
"* - $ = r M _ $.) Y U I ) =.1.$.Y I | &.*.&.&.} ~ F F I _ @.! D ",
"- - - X u M ~ ) Y R ` O.*.&.O.I P *.6.6.-.} I I Y ) | O._ U D D ",
"> . @   r c F R ` >.*...} ~ ~ ~ O.7.5.O.} } | =.-.@._ ) Y P I ~ ",
"* : > , > w h R [ [ O.O.P U ~ / @.O.U D ~ -.4.2.#.@.$.@.} ~ Y F ",
"- < > > : 9 y k D K @. .~ ~ I U ~ P D =.0.9.4.@.) ) O. .I F D I ",
"- : % @ * * 4 r x B j H P U F U T l W 0.9.1.~ U H ) 1.~ F F I ~ ",
"- > - : @ , : ; y a p k U Y ` [ ) B y ^  ._ Y H l E ! F N P ~ ~ ",
"- > , , < < > * 0 9 @ 7 V ) W <.B r O 1 C s k a 0 7 f g c n l B ",
"< < , > - # # - # @ = 3 7 l 7 B w 9 = @ ; @   - % . 3 3 5 5 @ 8 ",
"- , > # * - @   - > * , ; 5 9 8 : , > # * - @   - > * , - @ > : ",
", > - > : > * : > - > , , > < , , > - > > > * : > - > > , > < , ",
", % - : % + % & * - > - + : - - , % - : % + % & * - > - + : - - "
};
