/* XPM */
static char *_009[] = {
/* columns rows colors chars-per-pixel */
"32 32 115 2 ",
"   c #729632",
".  c #749B35",
"X  c #789A36",
"o  c #7E9E3B",
"O  c #77A336",
"+  c #7CA536",
"@  c #7DA837",
"#  c #7FA43C",
"$  c #7EA938",
"%  c #80A537",
"&  c #80A837",
"*  c #83A53B",
"=  c #83AC39",
"-  c #86B03A",
";  c #8AB43C",
":  c #8FB83C",
">  c #90BA3D",
",  c #829E40",
"<  c #8BA445",
"1  c #8CAC44",
"2  c #92AA49",
"3  c #8EB144",
"4  c #91B543",
"5  c #94B943",
"6  c #9CB64D",
"7  c #9AAD52",
"8  c #9DB354",
"9  c #A0A15A",
"0  c #A3AB5A",
"q  c #A0B851",
"w  c #A4B55B",
"e  c #A5BA5A",
"r  c #A8AA60",
"t  c #B6AE6E",
"y  c #ACB560",
"u  c #ACBB62",
"i  c #B4B66A",
"p  c #B4BA6A",
"a  c #BBAD74",
"s  c #B9B570",
"d  c #C5AD7F",
"f  c #C3B37A",
"g  c #CBB57E",
"h  c #C2BC7A",
"j  c #AEC064",
"k  c #B4C267",
"l  c #BBC26E",
"z  c #BAC473",
"x  c #C8C57C",
"c  c #C6AE81",
"v  c #C9AF81",
"b  c #C7B182",
"n  c #CCB484",
"m  c #CFB984",
"M  c #CFB788",
"N  c #CFB98B",
"B  c #D1B785",
"V  c #D3BA86",
"C  c #D8BF87",
"Z  c #D4BD8A",
"A  c #D8BF8A",
"S  c #D4BF91",
"D  c #C5C782",
"F  c #CEC787",
"G  c #CFC58E",
"H  c #CDCA89",
"J  c #DAC187",
"K  c #D6C18D",
"L  c #DBC38C",
"P  c #D7C988",
"I  c #DFC88D",
"U  c #D7C192",
"Y  c #DBC593",
"T  c #DEC993",
"R  c #DEC996",
"E  c #D7C398",
"W  c #DBC798",
"Q  c #DCC798",
"!  c #DECB98",
"~  c #DECB9A",
"^  c #E0C78C",
"/  c #E3CB8E",
"(  c #E5CD8F",
")  c #E1C990",
"_  c #E3CE93",
"`  c #E4CD93",
"'  c #E1CB94",
"]  c #E3CD94",
"[  c #E5CE97",
"{  c #E0C999",
"}  c #E2CE9A",
"|  c #E4CF9A",
" . c #E2CB9C",
".. c #E3CD9C",
"X. c #E4CE9C",
"o. c #E6D096",
"O. c #E5D19B",
"+. c #E3D09F",
"@. c #E5D19E",
"#. c #E5D29E",
"$. c #E8D29F",
"%. c #DFCEA1",
"&. c #E1CEA0",
"*. c #E3D0A2",
"=. c #E6D1A0",
"-. c #E5D3A3",
";. c #E7D4A1",
":. c #E4D2A4",
">. c #E7D5A4",
",. c #E8D4A0",
"<. c #E9D6A5",
"1. c #E7D6A9",
"2. c #E8D7AA",
"3. c #E9D9AC",
"4. c #E9DAB0",
/* pixels */
"_ J V Z }  .N M R <.O.A b J / / ` ,.=.L n n K A Z *.$.J B m Z ] ",
"J m Z .. .Z Z X.>.;.! K L L A A A L ( L L L A Z &.@.L A K } ;.O.",
"Z T =.{ Z Y } ..Q U U Y T T R T K L ] =.R L K } =.L V m U =.=.T ",
"T O...Y R } R Z m c n T ..@.| _ I L R +.] I J } K b b K ..=.' T ",
"R +.+.} ] Y Z n c n U ..O.` I A A T ' I J V V A b m Y ! W R ! R ",
"Y ] O.} Z b m M U ..=.O.) V n Z L L V b m A L L T Y S Z T =.=.Y ",
"} [ =.T V A Y &.:.>.@.) m c A I J n b A ) ` ` L Z m Z R ..@.' T ",
"T [ [ J A ! =...] ) / K Z ! T V b n I ;.>.} K V V K T ' { Y Y ! ",
"K ` / A R +.R K V A T } *.=.K m V L [ >.Y V V K Y T ) ) A m Z Z ",
"} / A K ' Y m d d m U ..>.] J L / J U L Z Y +.@.[ / L V b b b m ",
"@.K V L T A V A Y ! &.&.' / ( / L Z J J T @.@.o.[ | K n b n c R ",
"R m M R ) I L Y Y Y Y Z V ) ] +.+.) / / ` ` ( ` @.;.] L L L { ;.",
"n b Y ] K V M K Y K n M } >.2.=.T L ] o./ J V Z ..=.O.` / ] :.Y ",
"n L ` ] ! ..@.} K m K >.3.2.! Z K :.=.T V n V Z T ' ) A Z %.Z b ",
"^ ( O.2.2.=.R Z V L <.3.1.! Z Y 2.=.T A V L [ O.O.] L K ..Y m A ",
"( o.3.1.! Z b Z ' O.;...Y Z U =.O./ L L _ @.} Z m n V L A L I ( ",
"( ,.1.K b m Y :.>.' T Y K Y ..[ / L T | ..S b v V J L n N ] ` / ",
"@.<.K c Z ..>.=.R U Y W T T T / K Y { ! N b A / ) Y S Z L ) A A ",
"@.) V A O.;.} R ! ..{ R Y A A T Y R Y Z A ) X.:.:.X.] ) / K Y :.",
"V Z T ` O.T R &...T K Z A Z ..=...T K T O.;.1.2.=.] L L K ! ;.T ",
"b Z } _ V V ' ..Y Z Z A Y +.=...Z A ) o.O.o.o./ J m m A T } K n ",
"Z ! @.K n J L Y Z S Y ] O.[ ] A V O.<.<.@./ A A Z Y ) ] R Z b b ",
"R @._ V J A K U E %.O.` ( J J L ] 1.,.[ / / ) +.@.} R Y Z V A K ",
"Z T V J A Z L *.1.! ] [ V V J I } [ V b K @.>.;.| } ..} I L Z M ",
"L V A J V K ' @.Y Y @._ L L C V L V b +.4.3.>.} Y Y ] _ A m b A ",
"A K I B Z ! =.=...+.' A V V m V A i H 4.3.=.L V M T =.L m m A L ",
"T x y f P =.H D T K n f V K Y ! Y h 8 P _ T Z m p F K n g V L K ",
"u 1 X * < j 4 1 q 0 9 * u k z G h 7 o , l e i w 5 2 r t a s p h ",
"5 ; & * X & & = $ O * * = = # 8 6 4 * @ = #   = $ X < < 1 1 O 3 ",
"- : ; $ & = @ . = ; & : = + ; ; = : ; @ & = @ . = ; & : = + ; - ",
": ; = - ; ; & - ; = ; : : ; > : : ; = ; ; ; & - ; = ; : : ; > : ",
": $ = - $ O $ % & = ; = O - = = : $ = - $ O $ % & = ; = O - = = "
};
