/* XPM */
static char *_000[] = {
/* columns rows colors chars-per-pixel */
"32 32 155 2 ",
"   c None",
".  c #241D19",
"X  c #1B250E",
"o  c #142712",
"O  c #162B13",
"+  c #182D15",
"@  c #183115",
"#  c #1F3D1B",
"$  c #243717",
"%  c #24351C",
"&  c #223D1C",
"*  c #393028",
"=  c #4C3E34",
"-  c #22431E",
";  c #2A4A1F",
":  c #304E1F",
">  c #254420",
",  c #2A4B22",
"<  c #364E2A",
"1  c #2D5A23",
"2  c #2D5428",
"3  c #2F5C2A",
"4  c #325424",
"5  c #345C26",
"6  c #3B562F",
"7  c #325D2A",
"8  c #385E2C",
"9  c #386427",
"0  c #35612B",
"q  c #3B652D",
"w  c #3E692D",
"e  c #54453D",
"r  c #405530",
"t  c #475C35",
"y  c #436D2E",
"u  c #496E2C",
"i  c #46712E",
"p  c #48712F",
"a  c #4B782E",
"s  c #507C2F",
"d  c #456E30",
"f  c #4C653A",
"g  c #477030",
"h  c #4B7531",
"j  c #4E7833",
"k  c #537C33",
"l  c #587F34",
"z  c #5B4C40",
"x  c #5D5346",
"c  c #614B40",
"v  c #655549",
"b  c #6B594D",
"n  c #577944",
"m  c #53754B",
"M  c #577C4E",
"N  c #5A7E4C",
"B  c #578134",
"V  c #5B8335",
"C  c #5F8934",
"Z  c #618736",
"A  c #628937",
"S  c #638639",
"D  c #658C38",
"F  c #688E39",
"G  c #6B933B",
"H  c #6B923A",
"J  c #6A913A",
"K  c #6D9239",
"L  c #6E913B",
"P  c #6C923A",
"I  c #6C933A",
"U  c #6D933A",
"Y  c #6C933B",
"T  c #6D933B",
"R  c #6C923B",
"E  c #6E933A",
"W  c #6A943B",
"Q  c #6D943B",
"!  c #6E943A",
"~  c #6F953A",
"^  c #6E943B",
"/  c #6E953B",
"(  c #6F953B",
")  c #6F963A",
"_  c #6F963B",
"`  c #6F953C",
"'  c #6F963C",
"]  c #6C933A",
"[  c #70953B",
"{  c #70963A",
"}  c #70963B",
"|  c #70973B",
" . c #72973B",
".. c #769739",
"X. c #72943C",
"o. c #70963C",
"O. c #71973C",
"+. c #71963C",
"@. c #72983B",
"#. c #769839",
"$. c #71983C",
"%. c #72983C",
"&. c #72993C",
"*. c #73993C",
"=. c #73993D",
"-. c #729B3D",
";. c #749A3C",
":. c #749A3D",
">. c #759B3D",
",. c #769B3D",
"<. c #769B3C",
"1. c #769B3E",
"2. c #769C3D",
"3. c #779C3D",
"4. c #779D3D",
"5. c #779D3E",
"6. c #779C3E",
"7. c #749A3C",
"8. c #789D3D",
"9. c #799D3E",
"0. c #799E3E",
"q. c #799F3E",
"w. c #799E3F",
"e. c #7A9F3F",
"r. c #7A9D3E",
"t. c #7BA03F",
"y. c #7AA03E",
"u. c #7CA13E",
"i. c #7CA13F",
"p. c #7DA23F",
"a. c #7EA33F",
"s. c #7FA43F",
"d. c #7DA23F",
"f. c #759A41",
"g. c #7D9E40",
"h. c #6F9453",
"j. c #7D9D57",
"k. c #7EA340",
"l. c #7FA440",
"z. c #7FA541",
"x. c #7EA340",
"c. c #80A540",
"v. c #81A541",
"b. c #81A641",
"n. c #82A740",
"m. c #82A741",
"M. c #83A741",
"N. c #81A641",
"B. c #83A841",
"V. c #84A841",
"C. c #84A842",
"Z. c #84A942",
"A. c #85A942",
"S. c #86AA42",
"D. c #84A841",
/* pixels */
"                                                                ",
"                                                                ",
"                                                                ",
"                                                                ",
"                          j ,.#.V a q 9                         ",
"        j.h.N M m       ..*.T D H C j j w                       ",
"    k D q.D *.h y w   4 T q.M.M.,.V ,.Q y 5                     ",
"  V A.T q.Q T k C l 5 V o.*.A.q.A V Q C j o.W k y 5 1           ",
"  B Q l.A.i.D T i.l q k *.q.q.{ 3.F l o.Q o.A *.B g i 0         ",
"H k.F i.l.D C l A C y 0 Z M.T 3.M.T l q.3.M.k.Q V *.D q 7       ",
"D ' 3.A.Q s.M.C j k q q Q Q C F Q Z H H t.A.q.A A ,.C y 7       ",
"S T *.,.V l.*.D i.Q V 7 T H M.,.H T M.' q.q.Q { C V C y q O     ",
"f.A.t.D D H A T i.,.V 0 l A A C Z l D o.B.H i.M.F l B g 7 o     ",
"Q ,.H q.M.3.T F Q l g j q.,.D V w w l *.{ V *.T A M.i.F q @     ",
"j k { H ,.Q { T l k t.3.Q H T C k k y C H q.H A F q.@.k 0       ",
"  k Q C D C D d V l H q.A.B.,.C i.Q y q H M.3.,.T A k y q       ",
"  n i y w l C y q V A o.M.,.Z V D A j 0 h { *.F A l A g 5       ",
"      0 y ,.q.D A y w k o.@.l.Q k k y q y j l A g g h q &       ",
"      T g.H Q F D k k i y 3.l.H H T A 0 7 q l T V y q 7         ",
"      D ,.M.A.3.C q.3.y 0 C H A q.i.T y i C o.*.A *.p i q O     ",
"    Z q.H M.k.A V A D k q g T D o.Q j 0 Z M.Q i.*.D V D k 5     ",
"    r.o.t.i.Q l.q.k k g q g *.,.A j j y H Q M.A.,.A *.,.j q -   ",
"    S A i.o.H M.Q F { A w q A V j A g *.k.F k.q.D D l A V q 3   ",
"    M.M.{ D A Q Z ,.M.o.j 0 V j y w q A A M.M.T A.i.V k k q 7   ",
"    r.i.H M.i.Q A Q ,.k 0 q q q 2 & $ X.,.,.T C k.F H B.*.j 7   ",
"    s C H *.{ { ,.D k j w f v e *   X l.A.,.Q T D Z *.i.H g 2   ",
"    g D { D ,.Z A g A j q % . .       Q Q A l.M.,.Q D H j q 5   ",
"      h h y y V l w w q #             u V ,.D ,.Q H A V C w 4   ",
"        , 5 0 q q 3 ; O               : l D V C V A y V g 0 +   ",
"            x b z =                     ; w w q k j w 8 0 +     ",
"              . .                           > 6 t r < O         ",
"                                              e b c =           "
};
