/* XPM */
static char *_000[] = {
/* columns rows colors chars-per-pixel */
"32 32 169 2 ",
"   c #564B34",
".  c #5B4E35",
"X  c #5B4F38",
"o  c #5D5235",
"O  c #5D5933",
"+  c #5C523A",
"@  c #5F593A",
"#  c #625336",
"$  c #695736",
"%  c #605B36",
"&  c #6B5937",
"*  c #63553A",
"=  c #685739",
"-  c #645A3C",
";  c #6B5B3C",
":  c #705F3F",
">  c #5E712D",
",  c #5F7B2B",
"<  c #5E6231",
"1  c #62762F",
"2  c #627C2D",
"3  c #626532",
"4  c #636C32",
"5  c #6C603B",
"6  c #69683B",
"7  c #72663D",
"8  c #657232",
"9  c #667930",
"0  c #6D723A",
"q  c #6D7C38",
"w  c #76733E",
"e  c #575441",
"r  c #5E5A4A",
"t  c #635741",
"y  c #645941",
"u  c #6B5D42",
"i  c #615C4B",
"p  c #6E6147",
"a  c #65604E",
"s  c #6E624A",
"d  c #736344",
"f  c #746A42",
"g  c #796847",
"h  c #73654B",
"j  c #71694D",
"k  c #7A6D4D",
"l  c #7A7446",
"z  c #777649",
"x  c #676351",
"c  c #6C6C5E",
"v  c #766A54",
"b  c #7B6D54",
"n  c #736F5D",
"m  c #7E735B",
"M  c #45687B",
"N  c #696E65",
"B  c #606F6E",
"V  c #65706C",
"C  c #6D7268",
"Z  c #747364",
"A  c #797866",
"S  c #7B7866",
"D  c #727B73",
"F  c #737F7C",
"G  c #82765E",
"H  c #857962",
"J  c #65842E",
"K  c #64882C",
"L  c #698C2E",
"P  c #6D902F",
"I  c #6D8533",
"U  c #728D34",
"Y  c #74823D",
"T  c #79843D",
"R  c #7A8C3B",
"E  c #6F9531",
"W  c #729532",
"Q  c #789437",
"!  c #749B33",
"~  c #799D35",
"^  c #7B933A",
"/  c #7D9D3A",
"(  c #76A235",
")  c #7CA536",
"_  c #7DA837",
"`  c #7DA339",
"'  c #7EA939",
"]  c #788042",
"[  c #7F8A49",
"{  c #7F9243",
"}  c #82933E",
"|  c #869F3E",
" . c #80A537",
".. c #80A937",
"X. c #81A738",
"o. c #88A33E",
"O. c #82AB38",
"+. c #83AC39",
"@. c #85AE39",
"#. c #86AF3D",
"$. c #8AAF3C",
"%. c #86B13A",
"&. c #86B03C",
"*. c #89B33B",
"=. c #8AB33B",
"-. c #8FB83C",
";. c #90B63F",
":. c #90BA3D",
">. c #828D41",
",. c #879D4C",
"<. c #868952",
"1. c #87875E",
"2. c #86A940",
"3. c #83967D",
"4. c #82A078",
"5. c #4F7384",
"6. c #517686",
"7. c #537887",
"8. c #557989",
"9. c #5A7D8D",
"0. c #5A7F92",
"q. c #627E87",
"w. c #6B7F82",
"e. c #5D808F",
"r. c #5E8290",
"t. c #738383",
"y. c #7C8987",
"u. c #708488",
"i. c #73898D",
"p. c #7B8B89",
"a. c #638593",
"s. c #668896",
"d. c #698997",
"f. c #668A9A",
"g. c #6C8C9A",
"h. c #7B8E91",
"j. c #718F9C",
"k. c #6E909E",
"l. c #73919E",
"z. c #76929F",
"x. c #7F979E",
"c. c #698FA1",
"v. c #6D92A5",
"b. c #6F95A8",
"n. c #7595A2",
"m. c #7C97A1",
"M. c #7D99A4",
"N. c #7F9BA5",
"B. c #7197AA",
"V. c #7499AB",
"C. c #7A9DAD",
"Z. c #779FB2",
"A. c #799EB1",
"S. c #7BA1B4",
"D. c #7EA5B9",
"F. c #858B82",
"G. c #849BA1",
"H. c #889EA3",
"J. c #81A0AF",
"K. c #84A4B3",
"L. c #81A7BA",
"P. c #83AABE",
"I. c #8CABB8",
"U. c #85ADC2",
"Y. c #89AFC2",
"T. c #8AB1C5",
"R. c #8CB4CB",
"E. c #92BBD1",
"W. c #97C0D7",
/* pixels */
"#.' +.@.) O.O.@.O._ O.' +.&.O.=.#.' +.&.' ' O.@.O.) O.' @.&.O.=.",
"! O.! O...%.-.%.@.+.%.+.=.) ) %.! O.) ' ) %.-.O.%.=.=.=.=._ _ +.",
"! L K O.=.W W ) ~ ( W +.) W P ( E ! ! ) ) ! =.E ..( @.@.W _ ( J ",
"< 4 < 2 L 8 O > J 3 < I 8 < O 4 9 4 W 1 q , 2 I 9 1 8 I 4 Q W 4 ",
"b v v @ O o o o % * - o o # = + u u % o   o O #   X o o o 9 3 * ",
"d p k + + o = = = u d * = = * = d G h - h * # = X   . . X o . # ",
"# + +   ; = o & # # # # $ # - u u u t ; g + * $ . X X o = o . . ",
": u + y g ; o = # o # o # u b d b X + = ; X u ; + u t d d o = e ",
"t.V r v G A c D t.m.z.M.y.b H A F.x + t a F M.M.K.z.u.n A p.i.v.",
"0.V.U.L.T.R.E.W.L.f.9.f.R.m.K.T.U.R.T.Y.R.U.D.S.S.L.R.E.Y.A.v.M ",
"7.n.R.L.L.C.A.L.D.T.R.R.L.A.v.c.b.B.b.c.L.B.S.v.f.b.A.Y.R.S.a.5.",
"r.f.b.V.c.k.r.6.6.9.a.s.a.9.7.9.g.V.Z.b.d.e.9.9.8.a.g.9.6.6.a.a.",
"9.7.7.6.6.9.a.9.e.r.a.a.a.a.9.r.a.s.d.s.9.8.e.a.n.j.a.6.5.6.a.r.",
"g.a.r.8.9.a.g.g.l.r.a.a.a.a.9.a.a.a.a.s.a.a.a.a.e.5.6.a.d.g.r.9.",
"8.a.k.g.e.8.8.9.a.d.s.7.6.6.8.9.9.a.6.6.6.7.e.a.8.6.6.8.a.r.6.6.",
"8.a.r.e.e.9.8.9.9.e.s.r.7.7.7.6.6.a.a.9.r.d.d.9.a.a.r.9.9.9.9.6.",
"d.9.6.6.8.r.d.a.6.6.6.a.g.g.a.a.a.d.l.m.d.e.8.8.e.d.a.a.7.7.d.g.",
"a.9.9.a.a.d.9.6.7.6.6.8.a.9.8.9.d.a.8.a.d.g.a.d.a.8.8.e.d.g.g.a.",
"9.e.d.a.9.8.9.9.9.a.a.a.9.7.7.7.e.a.9.a.9.6.6.8.a.d.a.e.a.a.9.9.",
"r.9.e.8.7.6.7.8.r.l.g.a.a.l.g.a.a.a.g.z.l.e.9.7.6.6.9.e.a.9.9.9.",
"8.9.a.a.a.a.a.d.a.8.a.a.a.g.g.8.6.6.6.6.9.g.d.a.e.9.r.a.r.8.7.8.",
"a.a.8.9.s.l.z.a.8.6.6.6.6.8.9.7.6.6.6.6.6.e.n.M.z.d.r.a.a.s.d.s.",
"8.8.8.s.9.6.9.a.9.9.8.7.6.e.g.d.s.e.8.7.6.8.d.a.a.6.6.6.6.r.g.r.",
"v.P.P.D.a.s.v.V.C.g.V.a.V.S.s.9.9.9.S.P.D.A.v.9.B.V.f.r.s.B.S.S.",
"n.C.q.s.s.V.P.K.P.U.R.R.U.L.U.L.L.b.Z.Y.H.h.J.L.S.R.R.L.B.S.D.D.",
"m j - a Z N i * s c C F w.B w.x.G.4.3.m g y u h i A p.K.S.C.I.G.",
"H <.Y % k k 0 0 7 - - f ; = = b b z ^ f f - ; f q l g y a s p m ",
",./ ! ~ U } O.` | T 0 ` R R T f w R W U >.^ ] { $.^ 0 6 5 w [ 1.",
";.=.X.` W ) ) O.) ! / ~  .O.! ^ o.$. .) O.~ W O.) W Q ^ / / ( 2.",
"@.-.=._ X.@.) W +.=.O.=.O.) @.@.+.-.=._ ..@.) W +.=.O.=.@.) =.@.",
"=.=.+.=.=.=.O.%.=.+.=.-.-.=.:.-.=.=.+.=.=.=.O.%.=.+.=.-.-.=.:.-.",
"=.' @.%.' ( '  .O.+.=.@.( %.@.+.=.' @.%.' ( '  .O.+.=.@.( %.@.+."
};
