/* XPM */
static char *_004[] = {
/* columns rows colors chars-per-pixel */
"32 32 177 2 ",
"   c #564B34",
".  c #5A4E36",
"X  c #594E38",
"o  c #5E5136",
"O  c #5C5A32",
"+  c #5C523B",
"@  c #645535",
"#  c #685634",
"$  c #635E36",
"%  c #6A5937",
"&  c #63553A",
"*  c #65593C",
"=  c #6B5C3C",
"-  c #775F33",
";  c #715E3B",
":  c #656237",
">  c #686035",
",  c #676E35",
"<  c #6E6E35",
"1  c #656239",
"2  c #6A633A",
"3  c #6B6A3C",
"4  c #7A6233",
"5  c #7E673C",
"6  c #716A38",
"7  c #657034",
"8  c #697734",
"9  c #697F31",
"0  c #6E7439",
"q  c #6F7B3C",
"w  c #74733C",
"e  c #747B3B",
"r  c #36576A",
"t  c #3B5B6D",
"y  c #5B5747",
"u  c #645941",
"i  c #6A5D42",
"p  c #615C4A",
"a  c #635F50",
"s  c #6D6047",
"d  c #66604D",
"f  c #6F634C",
"g  c #736344",
"h  c #796745",
"j  c #716A41",
"k  c #796847",
"l  c #74654A",
"z  c #777142",
"x  c #777649",
"c  c #7B7749",
"v  c #60665E",
"b  c #6E6C5E",
"n  c #766D55",
"m  c #7A6C53",
"M  c #716F5F",
"N  c #7D7055",
"B  c #777359",
"V  c #7E7259",
"C  c #5C6966",
"Z  c #5E6C6A",
"A  c #436576",
"S  c #466877",
"D  c #466879",
"F  c #4A6C7D",
"G  c #506F7F",
"H  c #616F6C",
"J  c #757767",
"K  c #797562",
"L  c #7A7967",
"P  c #7C7B6A",
"I  c #6B7977",
"U  c #7C7F74",
"Y  c #82775B",
"T  c #66882E",
"R  c #6A882F",
"E  c #6C8532",
"W  c #6F8B32",
"Q  c #748337",
"!  c #748D36",
"~  c #74813B",
"^  c #768C38",
"/  c #7A8D3B",
"(  c #6F9531",
")  c #729532",
"_  c #789437",
"`  c #749C34",
"'  c #799D36",
"]  c #769138",
"[  c #7B933A",
"{  c #7E9C39",
"}  c #76A235",
"|  c #7DA436",
" . c #7DA937",
".. c #7EA938",
"X. c #788042",
"o. c #7E8E40",
"O. c #7F8A49",
"+. c #7F9243",
"@. c #80A537",
"#. c #80A837",
"$. c #82A439",
"%. c #88A33E",
"&. c #83AC39",
"*. c #8BAF3D",
"=. c #86B03A",
"-. c #8AB43B",
";. c #8EB83C",
":. c #90B73D",
">. c #92BA3D",
",. c #828D41",
"<. c #859943",
"1. c #87875E",
"2. c #86995A",
"3. c #83A341",
"4. c #86A940",
"5. c #80877D",
"6. c #83967D",
"7. c #82A078",
"8. c #4F7283",
"9. c #517686",
"0. c #557887",
"q. c #527688",
"w. c #557989",
"e. c #5A7D8C",
"r. c #5B7F92",
"t. c #5D808F",
"y. c #5E8191",
"u. c #6F8184",
"i. c #60818F",
"p. c #778583",
"a. c #738689",
"s. c #7E8C88",
"d. c #638593",
"f. c #668896",
"g. c #698996",
"h. c #62869A",
"j. c #658A9B",
"k. c #6C8C99",
"l. c #748B91",
"z. c #7B8E91",
"x. c #718F9C",
"c. c #73919E",
"v. c #7F989E",
"b. c #678CA0",
"n. c #698EA2",
"m. c #6D92A5",
"M. c #6F95A9",
"N. c #7495A4",
"B. c #7997A3",
"V. c #7B98A4",
"C. c #7196A9",
"Z. c #7499AC",
"A. c #759AAC",
"S. c #7C9DAB",
"D. c #769DB1",
"F. c #7A9FB1",
"G. c #7CA2B5",
"H. c #7EA5B9",
"J. c #879E89",
"K. c #839494",
"L. c #81979D",
"P. c #899A99",
"I. c #8EAC86",
"U. c #839BA3",
"Y. c #889EA3",
"T. c #81A1AF",
"R. c #82A3B2",
"E. c #8BAAB6",
"W. c #82A7B9",
"Q. c #82AABD",
"!. c #90AFBD",
"~. c #91B4BC",
"^. c #85ACC2",
"/. c #89AFC2",
"(. c #88B0C5",
"). c #8CB4CB",
"_. c #91B2C0",
/* pixels */
"&...&.$.$ = g u n.M.D D 9.e.y.d.f.g.g.g.t.y.y.R.i % = X.3.&.&.-.",
"` &.' E $ * # u F.8.t F w.t.y.e.w.w.w.f.k.G.F.R.P *   , W T ' &.",
"=.;.&.{ w & X p G.h.r A 8.e.d.d.t.e.e.d.k./.(.N.L.u &   O 7 ) ` ",
"-.&.| 9 2 g & y h.r.F 0.d.d.d.y.d.g.c.k.e.d.H.^.W.U o = = o $ $ ",
"..&.| ! 3 & o l A.n.w.N.f.w.9.9.9.w.g.f.g.f.e.e.n.N.b V g   o g ",
"&.&.-.[ / & ; = Z ^.q.9.g.g.t.t.g.g.w.8.9.w.w.m.y.n.u.m &   l = ",
"=.` &.( Q o # % H H.j.G w.y.k.d.t.d.e.e.f.k.c.k.h.D D.U.u.v K & ",
"..&.) ' e .   % a.y.j.S 9.e.g.g.y.e.e.t.y.f.d.e.C.A.A.e.D.r.A.C ",
"&.>.| | : & * + l.w.m.0.f.k.d.w.9.9.q.q.e.g.g.d.w.9.9.n.m.C.m.D.",
"&.&.( E : * = n N.n.f.d.x.g.d.d.d.d.k.k.k.w.w.d.d.d.d.e.j.A.A.y.",
"&.-.| _ ~ = % Y G.m.A w.i.g.d.w.q.w.w.w.g.9.8.9.9.w.k.B.c.f.w.9.",
"&.-.&.R 3 o   M F.n.A w.d.d.e.e.e.w.q.w.d.y.e.t.e.f.k.w.9.w.g.d.",
":.>.=.$.< - ; a F.b.F w.t.d.e.y.f.f.g.f.e.w.t.d.N.x.d.9.9.9.d.y.",
"&.;.&.8 @ 4 5 N R.j.8.w.t.d.t.d.f.d.f.f.d.d.f.d.t.8.9.f.k.k.y.e.",
"-.=.| ^ @ # % g I A.w.F 8.9.w.e.e.d.9.9.9.q.t.f.w.9.9.w.d.y.9.9.",
"-...&.^ % # @ & y A.d.8.9.0.q.9.9.f.d.e.y.g.g.e.d.d.y.e.e.e.e.9.",
"&.` W $ g h g J R.d.w.d.k.k.d.d.d.g.c.B.k.t.w.w.t.g.d.d.q.q.k.k.",
"` | ] 1 i g l 5.R.G.e.w.f.e.w.e.k.d.w.d.g.k.d.k.d.w.w.t.g.k.k.d.",
"=.;.&./ 3 f l p.W.W.e.d.e.q.q.q.t.f.e.d.e.9.9.w.d.g.d.t.f.d.e.e.",
"-.&.| W c m + v.G./.k.t.d.c.k.f.d.f.k.c.c.t.e.q.9.9.e.t.d.e.e.e.",
"..&.| _ o.N P E.Q.G.C.d.f.k.k.w.9.9.9.9.w.k.k.d.t.e.y.f.y.w.0.w.",
"&.&.&.` ~ g n ~.B.^.q.8.9.w.e.q.9.9.9.9.9.t.N.V.c.g.y.f.f.f.k.f.",
"=.` | ) ^ $ p _.S.G.M.w.9.t.k.k.f.t.w.q.9.w.g.d.d.9.9.9.9.y.k.y.",
"..=.=.;.$.[ e n P.G.y.A.g.d.e.w.e.e.G.Q.H.F.m.e.C.A.j.y.j.C.G.G.",
"&.>.=.-.=.$.[ w l K.G.A.A.q.9.y.Q.M.D./.Y.z.T.W.G.).).W.C.G.H.H.",
"&.=...| &.| ' Q > = 2.~.).W.M.m.U.7.6.V k u i l p P s.R.G.S.E.U.",
"&.-.&.=.| ;.=.| [ / <.I.!.).G.l.m x [ j g * = g q c l u d f s V ",
"&.-.;.;.>.>.=.&.&.&.' [ z B J.L w / ) ! ,.[ X.+.*.[ 0 1 2 w O.1.",
">.>.;.-.&. . .&. .` ' ' { e ^ 6 %.*.@.| &.' ) &.| ` _ [ { { } 4.",
"&.;.=. .#.&.| ` &.=.&.-.&.' $.$.&.;.=. .#.&.| ` &.=.&.-.&.| =.&.",
"-.=.&.=.=.=.&.=.=.&.-.;.;.-.>.;.-.=.&.=.=.=.&.=.=.&.-.;.;.-.>.;.",
"-...&.=...} ..@.&.&.=.&.} =.&.&.-...&.=...} ..@.&.&.=.&.} =.&.&."
};
