/* XPM */
static char *_002[] = {
/* columns rows colors chars-per-pixel */
"32 32 169 2 ",
"   c #574A33",
".  c #5B4E35",
"X  c #5E5236",
"o  c #5D523A",
"O  c #635436",
"+  c #695736",
"@  c #635B36",
"#  c #6B5837",
"$  c #63563B",
"%  c #685739",
"&  c #655B3B",
"*  c #6B5C3D",
"=  c #705F3D",
"-  c #656A35",
";  c #686A35",
":  c #666238",
">  c #6A653C",
",  c #6C6B3C",
"<  c #72663D",
"1  c #627030",
"2  c #677A30",
"3  c #6B7B35",
"4  c #6D713B",
"5  c #737937",
"6  c #717D38",
"7  c #3F6273",
"8  c #5C5848",
"9  c #635943",
"0  c #6B5F45",
"q  c #635E4B",
"w  c #6C6047",
"e  c #65604E",
"r  c #6B624A",
"t  c #736242",
"y  c #766B42",
"u  c #786847",
"i  c #72654A",
"p  c #75694C",
"a  c #796B4B",
"s  c #7C7F45",
"d  c #7C704D",
"f  c #646559",
"g  c #676A5D",
"h  c #6C6B5C",
"j  c #776950",
"k  c #7D6E53",
"l  c #706F5E",
"z  c #7E755F",
"x  c #405C6A",
"c  c #426576",
"v  c #456778",
"b  c #47697B",
"n  c #4A6C7D",
"m  c #516B74",
"M  c #5F787D",
"N  c #696E65",
"B  c #606F6E",
"V  c #6D7268",
"C  c #717162",
"Z  c #787461",
"A  c #627271",
"S  c #61797E",
"D  c #6C7E7F",
"F  c #737C74",
"G  c #787D72",
"H  c #757F7A",
"J  c #877A62",
"K  c #688C2D",
"L  c #6E8435",
"P  c #6F8538",
"I  c #728B36",
"U  c #75823D",
"Y  c #79843D",
"T  c #748E38",
"R  c #7A8B3B",
"E  c #6E9032",
"W  c #6F9832",
"Q  c #729334",
"!  c #789737",
"~  c #749C34",
"^  c #7A9D36",
"/  c #7B9339",
"(  c #7D9B3A",
")  c #76A235",
"_  c #7CA536",
"`  c #7DA837",
"'  c #7EA339",
"]  c #7EA938",
"[  c #7B8145",
"{  c #7E8841",
"}  c #82923F",
"|  c #859D3D",
" . c #80A637",
".. c #80A837",
"X. c #81A738",
"o. c #82AC39",
"O. c #89AE3B",
"+. c #86B03A",
"@. c #8AB33B",
"#. c #8FB83C",
"$. c #90B63F",
"%. c #91BA3D",
"&. c #86964A",
"*. c #879D4C",
"=. c #868952",
"-. c #808378",
";. c #4A6D80",
":. c #4F7384",
">. c #527887",
",. c #547688",
"<. c #557A89",
"1. c #5A7D8C",
"2. c #5A7F90",
"3. c #627E87",
"4. c #6B7F82",
"5. c #5D808F",
"6. c #5F8291",
"7. c #60818F",
"8. c #768787",
"9. c #7B8985",
"0. c #7B8E8E",
"q. c #638593",
"w. c #678896",
"e. c #698996",
"r. c #62879A",
"t. c #668A9B",
"y. c #6C8C9A",
"u. c #788C91",
"i. c #6F909C",
"p. c #7E9295",
"a. c #73919E",
"s. c #7F979E",
"d. c #608DA5",
"f. c #6A8EA1",
"g. c #6C91A3",
"h. c #6492AA",
"j. c #6D95A9",
"k. c #7596A5",
"l. c #7A96A1",
"z. c #7397A8",
"x. c #7599AB",
"c. c #7A9CAC",
"v. c #6F9CB2",
"b. c #769DB0",
"n. c #799FB3",
"m. c #74A0B6",
"M. c #7DA1B2",
"N. c #7BA2B6",
"B. c #7DA2B5",
"V. c #7CA3B7",
"C. c #75A3BC",
"Z. c #7FA5B9",
"A. c #7CA5BA",
"S. c #79A7C0",
"D. c #7CABC4",
"F. c #82979B",
"G. c #839DA5",
"H. c #829FA9",
"J. c #86A2AB",
"K. c #82A5B5",
"L. c #80A6B9",
"P. c #81A7BD",
"I. c #83AABD",
"U. c #89A9B9",
"Y. c #8FB0BE",
"T. c #85ADC2",
"R. c #89AFC3",
"E. c #8BB1C5",
"W. c #8BB2C8",
/* pixels */
"O.] _ Q 6 * t h ,.,.f.6.<.5.6.q.q.e.e.e.5.b g.K.$ + = s &.+.o.@.",
"~ _ K ~ 3 . O r K.I.N.t.5.6.6.1.<.<.<.q.5.n b S.g # # [ @.] ] +.",
"_ X.2 - & $ o 9 M.;.n.2.>.1.q.q.5.1.<.q.e.<.c d.8.% . $ R ` o.o.",
"3 I 4 o 9 t i u.g.v b.z.q.q.q.6.q.e.a.y.1.r.h.D.D   % O 3 o.@.o.",
"j w 0 9 p $ p.<.,.c.x.y.q.<.>.>.>.<.e.q.e.g.r.j.M . % 5 / @.o.+.",
"t p 0 $ i H z.P.Z.M.x.q.y.e.5.5.e.e.<.:.>.2.b.j.S     @ ( @.#.@.",
"O e 9 h G.m 1.N.n.w.e.q.1.6.e.q.5.q.1.1.e.q.M.Z.A . . O L o.o.#.",
"G H.Y.c.1.b 1.Z.f.>.>.,.<.1.e.e.6.1.1.1.k.x.N.k.q i a > I ~ ~ +.",
"x <.b.f.N.V.V.b.t.q.q.q.e.y.q.<.>.>.>.>.<.v.h.g 0 k p @ ! @.#.+.",
"t.P.2.7 n <.q.y.e.6.y.y.y.e.q.q.q.q.e.e.1.C.m.r u u t : / ` ] @.",
"6.e.<.7.q.y.e.1.>.>.<.1.q.e.q.<.>.<.<.>.<.Z.v.q * % X @ / ] _ o.",
"1.>.>.>.q.w.<.>.>.>.1.q.q.q.1.1.<.<.>.<.6.V.j.8 $ . , Q o.#.@.] ",
"1.>.>.>.>.1.q.1.5.6.q.q.q.q.1.6.q.w.e.q.g.g.e.l * * * ; _ o.) o.",
"y.q.6.<.1.q.y.y.a.6.q.q.q.q.5.q.q.q.q.y.V.V.U.F X * $ X ' _ @.+.",
"<.q.i.y.5.<.<.1.q.e.q.>.>.>.<.1.1.q.>.r.g.T.f.F X . O X / @.%.#.",
"<.q.6.5.5.1.<.<.1.5.w.5.<.>.>.>.>.q.q.1.q.W.x.F.* % % O - o.o.o.",
"e.1.>.>.<.6.e.q.>.>.>.q.y.y.q.q.q.e.a.l.e.1.:.g.0.$ X X L ] o.@.",
"q.1.1.q.q.e.1.>.>.>.>.<.q.1.<.1.e.q.<.q.e.y.y.L.0.$ * > 3 ] ] +.",
"1.5.e.q.1.<.1.1.1.q.q.q.1.>.>.>.5.q.1.q.1.>.V.R.9.i > P L _ o.o.",
"6.1.5.<.>.>.>.<.6.a.y.q.q.a.y.q.q.q.y.a.a.5.g.E.p.& , I Q o.@.o.",
"<.1.q.q.q.q.q.e.q.<.6.q.q.y.y.<.>.>.>.>.<.y.w.V.J.# % L o.#.o.+.",
"q.q.<.1.w.a.a.q.<.>.>.>.>.<.1.>.>.>.>.>.>.1.z.E.8.@ > 2 ~ @.#.@.",
"<.<.<.t.1.>.1.q.1.1.<.>.>.5.y.e.w.5.<.<.6.g.R.U.Z , T L W o.o.#.",
"g.I.I.Z.q.w.g.x.c.y.x.q.x.M.t.1.1.t.x.I.j.b.M.-.p & 1 _ _ ~ ~ +.",
"z.c.3.t.t.x.I.K.I.T.W.W.T.I.T.I.t.x.n.T.T.a.f 9 * I Q #.o.@.#.+.",
"z p & e C N q $ w h V H 4.B 4.s.Z.K.l.4.G a a , > R %.#.@.` ] @.",
"J =.U & a a , 4 < & & y * $ % k p.C i 9 o } R I ' ~ @.#.@.` _ o.",
"*.( ~ ^ I } o.' | Y 4 ' R R Y y t u d U > | o.E #.@.^ _ o.#.@.` ",
"$.@.X.' Q _ _ o._ ~ ^ ^  .o.~ / y { &.Q L ^ _ ] ` ) _ _ ..o.) o.",
"o.#.@.` X.o._ ~ o.@.o.@.o._ O.o.( O.O._ _ o._ ~ o.@.o.@.o._ @.+.",
"@.@.o.@.@.@.o.+.@.o.@.#.#.@.%.#.@.@.o.@.@.@.o.+.@.o.@.#.#.@.%.#.",
"@.] o.+.] ) ]  .o.o.@.o.) +.o.o.@.] o.+.] ) ]  .o.o.@.o.) +.o.o."
};
