/* XPM */
static char *_001[] = {
/* columns rows colors chars-per-pixel */
"32 32 160 2 ",
"   c #564C35",
".  c #5B4E35",
"X  c #5B4F38",
"o  c #5E5136",
"O  c #5D5A34",
"+  c #5D523A",
"@  c #5F593A",
"#  c #625336",
"$  c #695736",
"%  c #615C35",
"&  c #6B5937",
"*  c #63553A",
"=  c #685739",
"-  c #65593D",
";  c #6B5B3C",
":  c #705F3E",
">  c #5E712D",
",  c #5E6231",
"<  c #61712F",
"1  c #637C2E",
"2  c #626234",
"3  c #6C6437",
"4  c #636A32",
"5  c #676239",
"6  c #6B633B",
"7  c #72603F",
"8  c #657233",
"9  c #6E7737",
"0  c #667830",
"q  c #6A7A36",
"w  c #737B3A",
"e  c #3D5F71",
"r  c #5F5744",
"t  c #5C5A4C",
"y  c #625742",
"u  c #655941",
"i  c #6B5D42",
"p  c #605A48",
"a  c #705F40",
"s  c #605F51",
"d  c #5C655D",
"f  c #6E6146",
"g  c #6C624B",
"h  c #726244",
"j  c #766A47",
"k  c #71654B",
"l  c #796748",
"z  c #76684B",
"x  c #7A6A4D",
"c  c #7C7E45",
"v  c #636050",
"b  c #6D6651",
"n  c #6C6855",
"m  c #6C6C5E",
"M  c #756A52",
"N  c #7A6C53",
"B  c #746E5C",
"V  c #7E7058",
"C  c #436677",
"Z  c #4D6C7A",
"A  c #6C7167",
"S  c #65706C",
"D  c #777565",
"F  c #7B7662",
"G  c #727B73",
"H  c #80765F",
"J  c #837861",
"K  c #67832F",
"L  c #64882C",
"P  c #698C2E",
"I  c #6D902F",
"U  c #6C8533",
"Y  c #6D8E31",
"T  c #728C33",
"R  c #788E37",
"E  c #748A3C",
"W  c #729533",
"Q  c #799536",
"!  c #749C33",
"~  c #799D35",
"^  c #77923A",
"/  c #7B9439",
"(  c #7E9D39",
")  c #77A235",
"_  c #7BA536",
"`  c #7DA937",
"'  c #7DA439",
"]  c #7EA938",
"[  c #7A8076",
"{  c #80A637",
"}  c #81A937",
"|  c #87A73B",
" . c #82AC39",
".. c #89AF3C",
"X. c #86B03A",
"o. c #8AB33B",
"O. c #8DB63C",
"+. c #8FB83D",
"@. c #90B93D",
"#. c #93BB3E",
"$. c #839843",
"%. c #8CA34B",
"&. c #8B8269",
"*. c #80867B",
"=. c #889C73",
"-. c #4C6E80",
";. c #4E7282",
":. c #517686",
">. c #537887",
",. c #537789",
"<. c #557A89",
"1. c #5A7E8D",
"2. c #5A7F91",
"3. c #5D808F",
"4. c #5E8291",
"5. c #728283",
"6. c #7C8987",
"7. c #778788",
"8. c #788888",
"9. c #638493",
"0. c #678896",
"q. c #698997",
"w. c #618699",
"e. c #658A9B",
"r. c #6C8C9A",
"t. c #758D95",
"y. c #7C8E91",
"u. c #6E909E",
"i. c #789392",
"p. c #73919D",
"a. c #7B959D",
"s. c #6A8FA2",
"d. c #6C91A3",
"f. c #6F95A8",
"g. c #7294A3",
"h. c #7996A2",
"j. c #7E97A1",
"k. c #7D99A5",
"l. c #7096A9",
"z. c #749AAC",
"x. c #7B9CAB",
"c. c #799EB1",
"v. c #7DA1B4",
"b. c #7FA6B9",
"n. c #808F8F",
"m. c #80969A",
"M. c #849A9E",
"N. c #829FAB",
"B. c #82A1AF",
"V. c #84A4B3",
"C. c #81A7BA",
"Z. c #82A8BC",
"A. c #8AAEBF",
"S. c #85ABC0",
"D. c #8AAFC3",
"F. c #8AB1C5",
"G. c #8BB1C5",
"H. c #8DB5CB",
"J. c #92BBD1",
"K. c #97C0D7",
/* pixels */
"..]  . ._ } }  .} _ } ]  .X.} o. .]  . ._ } }  .} _ } ]  .X.} o.",
"! } ! } } X.O.X. . .X. .o._ _ X.!  .} } } o.+.X.X.o.o. .o.] ] X.",
"! P L } o.W W _ ~ ) !  ._ W I ) } { ! } @.@.@.+.@.O.@.X.} `  .} ",
", 4 , 1 P 8 O > K 2 , U 8 , O 4 % 4 4 1 ! I  .o. .]  .} )  .o. .",
"N M M @ O o o o % * - o o # = + ; + o o 4 < U _ ) _ O.{  .O. .X.",
"h f x + + o = = = i h * = = * = h + i + * # % ) } X.o.@.O.o.+.o.",
"# + +   ; = o & # # # # $ # - i k g N + ; = 2 0 U W _  ._  . .O.",
": i + u l ; o = # o # o # i N h y k i # = * = .   T ! ) _ ! ! X.",
"5.S t N H F m G 5.j.p.k.6.N J D r f # $ $ = f . o 5 < }  .o.+.X.",
"2.z.S.C.F.H.J.K.Z.e.1.e.H.j.V.F.B.V.5.i o o + f l l o T X.` ] o.",
">.g.F.Z.C.x.c.C.b.F.H.H.C.c.d.s.w.e.F.N.t - x h 7 ; # Q  .` _  .",
"4.e.f.z.s.u.4.:.:.1.w.0.9.1.>.1.c.l.S.H.l.a.b . : = l % Y O.o.] ",
"1.>.>.:.:.1.9.1.3.4.9.9.9.9.1.4.9.0.4.S.w.>.y.n = * h * 1 ] )  .",
"r.9.4.<.1.9.r.r.p.4.9.9.9.9.3.9.9.9.1.0.b.w.d M.p = = 3 T _ o.X.",
"<.9.u.r.3.,.,.1.9.q.0.>.:.:.,.1.1.9.:.;.,.l.C.m.* o o 3 / o.@.+.",
",.9.4.3.3.1.,.1.1.3.0.4.>.>.>.:.:.9.9.1.1.9.v.A.m o $ # O ~  . .",
"q.1.:.:.,.4.0.9.:.:.:.9.r.r.9.9.9.0.p.h.q.b.C.n.f $ # % Q  .} o.",
"9.1.1.9.9.0.1.:.,.:.:.,.9.1.,.1.q.9.,.9.9.1.4.y.# $ * O / _ ] X.",
"1.3.0.9.1.,.1.1.1.9.9.9.1.>.>.>.3.9.1.9.>.e -.m.= o   O ^ _  .} ",
"4.1.3.,.>.:.>.<.4.p.r.9.9.p.r.9.9.9.r.p.r.,.d.x.v . * 2 U  .o. .",
"1.1.9.9.9.9.9.q.9.,.4.9.9.r.r.,.:.:.:.:.1.S.H.8.; ; ; 4 ( O. .X.",
"9.9.,.3.0.p.p.9.,.:.:.:.:.,.1.>.:.:.:.:.2.4.C.B ; h h - 9 X.+.o.",
"<.,.,.9.1.:.1.0.3.1.,.>.:.9.r.q.0.3.,.>.f.:.x.A l h i - W  . .O.",
"9.r.9.1.9.0.9.9.0.r.q.0.r.9.1.,.1.3.4.4.r.z.q.t.f + - - q ! ! X.",
"9.4.1.1.1.0.9.:.:.,.9.9.1.:.:.:.>.,.1.3.<.l.Z x.B k ; 5 ^ ..+.X.",
"g.z.z.v.g.,.:.:.:.,.9.0.9.1.1.1.3.4.9.4.4.e.0.V.V i i w ' ` ] o.",
"p.c.e.,.l.c.e.,.4.9.9.3.>.<.3.0.p.r.q.9.d.v.Z.7.f = i % ( ` _  .",
"&.=.i.r.e.v.D.p.h.p.9.1.,.<.1.0.0.,.,.>.2.l.4.A i h i % Q O.o.` ",
"%...$.g y.H.H.l.w.,.,.9.r.r.9.1.0.1.1.1.,.z.V.M a k + 6 (  .)  .",
" ._ ^ E c [ C.s.s.w.1.0.r.,.:.:.,.9.k.h.9.Z.x.z # + k w R _ o.X.",
"o. .P / O X s k.w.Z.z.9.r.1.1.,.,.9.0.x.d.d.F.g = ; j / | o.@.+.",
"o._ P ( o = h *.H.b.c.q.9.1.1.9.r.1.>.1.1.C v.M = & = w !  . . ."
};
