/* XPM */
static char *_005[] = {
/* columns rows colors chars-per-pixel */
"32 32 170 2 ",
"   c #564A33",
".  c #5B4E35",
"X  c #594E38",
"o  c #5E5236",
"O  c #5C5A35",
"+  c #5D513A",
"@  c #645536",
"#  c #685635",
"$  c #635B36",
"%  c #6A5937",
"&  c #63553A",
"*  c #685739",
"=  c #66593B",
"-  c #6C5B3C",
";  c #775F33",
":  c #705E3C",
">  c #646235",
",  c #666C35",
"<  c #6B6C35",
"1  c #676239",
"2  c #6A643A",
"3  c #6C6C3A",
"4  c #7A6233",
"5  c #7E673C",
"6  c #6B7735",
"7  c #697C33",
"8  c #6D7439",
"9  c #737937",
"0  c #71713C",
"q  c #737C3B",
"w  c #36576A",
"e  c #3A5B6D",
"r  c #3D5F71",
"t  c #3E6172",
"y  c #5B5747",
"u  c #5C5848",
"i  c #645B43",
"p  c #6B5E42",
"a  c #635E4B",
"s  c #695F48",
"d  c #705F40",
"f  c #635F50",
"g  c #6F6146",
"h  c #6C634B",
"j  c #736343",
"k  c #766A47",
"l  c #726449",
"z  c #76684B",
"x  c #7A694B",
"c  c #7C7F45",
"v  c #636050",
"b  c #6B6653",
"n  c #696857",
"m  c #676A5D",
"M  c #746B53",
"N  c #7D6F56",
"B  c #726F5D",
"V  c #7B7057",
"C  c #7E7058",
"Z  c #5E6C6A",
"A  c #436576",
"S  c #466877",
"D  c #466779",
"F  c #46697A",
"G  c #4B6C7D",
"H  c #506F7F",
"J  c #5F787D",
"K  c #656A62",
"L  c #616F6C",
"P  c #6C7167",
"I  c #6A716B",
"U  c #627271",
"Y  c #6B7977",
"T  c #61797E",
"R  c #6C7E7F",
"E  c #727C75",
"W  c #807053",
"Q  c #82775B",
"!  c #827A65",
"~  c #887C66",
"^  c #867E6A",
"/  c #6A882F",
"(  c #6D8533",
")  c #728436",
"_  c #728C35",
"`  c #788E37",
"'  c #71803C",
"]  c #768C38",
"[  c #7B8D3C",
"{  c #6F9531",
"}  c #749235",
"|  c #789737",
" . c #739C34",
".. c #7A9D36",
"X. c #779238",
"o. c #7B9339",
"O. c #7E9C39",
"+. c #77A135",
"@. c #7BA436",
"#. c #7FA139",
"$. c #7EA938",
"%. c #7B8145",
"&. c #80A837",
"*. c #83A439",
"=. c #83AD39",
"-. c #89AF3B",
";. c #86B03A",
":. c #8AB43B",
">. c #8FB83C",
",. c #90B73D",
"<. c #91BA3D",
"1. c #809A40",
"2. c #85944C",
"3. c #4C6E81",
"4. c #4E7282",
"5. c #527686",
"6. c #557887",
"7. c #547689",
"8. c #557A89",
"9. c #5B7D8C",
"0. c #5A7F92",
"q. c #5D808F",
"w. c #5E8191",
"e. c #6E8387",
"r. c #60818F",
"t. c #68818B",
"y. c #748786",
"u. c #748789",
"i. c #788888",
"p. c #638493",
"a. c #6B8794",
"s. c #668896",
"d. c #698996",
"f. c #62869A",
"g. c #64899C",
"h. c #6C8C99",
"j. c #758C93",
"k. c #7D8F91",
"l. c #73919D",
"z. c #648CA2",
"x. c #6A8EA2",
"c. c #6C91A4",
"v. c #6492AA",
"b. c #6F94A9",
"n. c #6C96AA",
"m. c #7494A4",
"M. c #7A97A2",
"N. c #7D99A4",
"B. c #7096AA",
"V. c #7499AC",
"C. c #7C9CAB",
"Z. c #6F9CB2",
"A. c #769CB0",
"S. c #7B9FB1",
"D. c #74A0B6",
"F. c #7DA2B5",
"G. c #75A3BC",
"H. c #7CA5BA",
"J. c #79A7C0",
"K. c #7CABC4",
"L. c #808F8F",
"P. c #81969A",
"I. c #809AA4",
"U. c #83A4B3",
"Y. c #81A7BB",
"T. c #84AABC",
"R. c #86ACC1",
"E. c #8BB0C5",
"W. c #8CB3C8",
"Q. c #91B7CB",
/* pixels */
"-.$.=.*.$ - j i x.b.F F 5.9.w.p.s.d.d.d.q.F c.U.& # : c 2.;.=.:.",
" .=...( $ * # i S.4.e G 8.q.w.9.8.8.8.p.q.G F J.m % - %.:.$.$.;.",
";.>.=.O.0 & X a F.f.w A 4.9.p.p.q.9.8.p.d.8.A z.y.# . & [ $.=.=.",
":.=.@.7 2 j & y f.0.G 6.p.p.p.w.p.d.l.h.9.f.v.K.R   # @ 7 =.:.=.",
"$.=.@._ 3 & o l V.x.8.m.s.8.5.5.5.8.d.s.d.c.f.n.J   # 9 o.:.=.;.",
"=.=.:.o.[ & : - Z R.7.5.d.d.q.q.d.d.8.4.5.0.A.b.T     * O.;.>.;.",
";. .=.{ ) o # % L H.g.H 8.w.h.p.q.p.9.9.d.s.F.H.U .   @ ( =.=.>.",
"$.=. ...q .   * u.w.f.S 5.9.d.d.w.9.9.9.m.V.D.m.s l x 2 _  . .;.",
"=.<.@.#.1 & = + j.8.c.6.s.h.p.8.5.5.6.6.8.Z.v.m p N l $ | ;.>.;.",
"=.=.{ ( 1 = - M m.x.s.p.h.d.p.p.p.p.h.d.9.G.D.h x x j 1 | $.$.;.",
"=.:.@.} ' - * Q F.c.A 8.r.d.p.8.6.8.8.5.8.H.Z.a - * o $ o.$.@.=.",
"=.:.=./ 2 o   B S.x.A 8.p.p.9.9.8.8.6.8.w.F.b.u &   3 } =.>.;.$.",
",.<.;.*.< ; : f S.z.F 8.q.p.9.w.s.s.d.s.c.c.a.B - - - , #.=.+.=.",
"=.>.=.6 @ 4 5 V U.g.4.8.q.p.q.p.s.p.s.h.F.F.T.E o - & o #.@.;.;.",
":.;.@.] @ # % l Y V.8.G 4.5.8.9.9.p.5.g.c.R.x.E o   @ o o.;.<.>.",
":.$.=.] % # @ & y V.p.4.5.6.6.5.5.s.p.9.p.W.V.P.- # # @ , =.=.=.",
"=.$.=.) 2 j x x M S.g.F p.h.p.p.p.d.l.M.h.H.Y.L.g # @ $ | =.=.;.",
" .=.@.| $ & s N ! S.z.e 6.8.8.9.h.p.8.p.p.8.w.k.@ # & O o.@.$.;.",
";.>. .7 o s M h I f.f.A G 5.6.6.q.s.9.p.6.r 3.P.* o   O X.@.=.=.",
":.=.@._ 1 p ~ ^ I.7.H.G 6.h.h.s.p.s.h.l.h.8.c.C.v   & > ( =.:.=.",
"$.=.+.) $ j W ! T.E.V.G 9.h.h.8.5.5.5.5.9.R.W.i.- - - , O.>.=.;.",
"=.=.;.) @ & & b Q.x.e F 4.8.9.6.5.5.5.5.0.w.U.B - j l = 8 ;.>.;.",
";. .$.7 * * = K E.3.t 4.5.q.h.h.s.q.8.6.b.5.C.P x l s = } =.=.>.",
"$.;.;.-.2 i p u.V.3.5.r.h.s.9.8.9.q.w.w.h.V.h.j.g o = $ 7  . .;.",
"=.<. .( 1 = & t.3.4.A 6.8.5.5.5.6.8.9.q.8.B.G C.B l - 1 } -.>.;.",
"=.=. ._ > l g M.A x.D 5.9.9.9.9.q.w.p.w.w.g.g.U.C p p q #.$.$.;.",
"=.:.@.6 = x k e.8.B.e D 4.8.q.d.l.h.h.p.c.F.Y.i.g & p $ O.$.@.=.",
"=.:.&.( 2 j j L R.8.e F 5.8.9.s.s.8.8.6.0.B.w.P s j p $ | >.;.$.",
"<.<.>.8 o o % n R.0.r 4.d.h.p.9.s.9.9.9.8.V.U.M d l o 2 ..=.+.=.",
"=.>.1.8 8 & * h C.c.G 9.h.8.5.5.8.s.N.m.s.Y.C.z @ o l q ` @.;.;.",
":.;.@.o.* * * p a.G 3.6.d.9.9.8.8.p.d.C.c.c.E.h & - k o.*.:.<.>.",
":.$.=.> & j j b Y.G 3.9.p.9.9.p.h.9.6.8.9.A F.M * % * 9 | =.=.=."
};
