/* XPM */
static char *_003[] = {
/* columns rows colors chars-per-pixel */
"32 32 166 2 ",
"   c #564B34",
".  c #5B4E34",
"X  c #5B4F38",
"o  c #5D5234",
"O  c #5D533B",
"+  c #635435",
"@  c #695736",
"#  c #625A35",
"$  c #6D5A37",
"%  c #63553A",
"&  c #65593B",
"*  c #6B5A3B",
"=  c #5F7B2B",
"-  c #5F6332",
";  c #62762F",
":  c #627C2E",
">  c #646434",
",  c #636D32",
"<  c #6A6D36",
"1  c #64613B",
"2  c #6B633B",
"3  c #6B6A38",
"4  c #7A6337",
"5  c #75613A",
"6  c #657430",
"7  c #697434",
"8  c #667930",
"9  c #6B7C34",
"0  c #6D743A",
"q  c #73783C",
"w  c #3A5B6E",
"e  c #3C5E70",
"r  c #3E6172",
"t  c #575441",
"y  c #625640",
"u  c #645942",
"i  c #6C5F42",
"p  c #625A48",
"a  c #695F48",
"s  c #6F6247",
"d  c #65604F",
"f  c #6A614B",
"g  c #736343",
"h  c #706944",
"j  c #72644A",
"k  c #74694E",
"l  c #7A6B4C",
"z  c #666352",
"x  c #6A6553",
"c  c #696857",
"v  c #6C6B5D",
"b  c #766C55",
"n  c #7A6C54",
"m  c #736F5D",
"M  c #7D745B",
"N  c #436476",
"B  c #466779",
"V  c #45697B",
"C  c #4A6C7D",
"Z  c #656A62",
"A  c #616F6C",
"S  c #6A716B",
"D  c #797866",
"F  c #6E7770",
"G  c #69797B",
"H  c #717E7D",
"J  c #807053",
"K  c #83755C",
"L  c #827B58",
"P  c #827A65",
"I  c #887C66",
"U  c #847E69",
"Y  c #63832C",
"T  c #68872F",
"R  c #6A8F2E",
"E  c #6C8631",
"W  c #6B8C31",
"Q  c #718536",
"!  c #718D34",
"~  c #75823B",
"^  c #6F9531",
"/  c #729334",
"(  c #749C33",
")  c #7B9C36",
"_  c #779038",
"`  c #7B9338",
"'  c #7C9939",
"]  c #77A034",
"[  c #7BA436",
"{  c #7EA837",
"}  c #7EA938",
"|  c #7E9F40",
" . c #81A737",
".. c #80A937",
"X. c #83AC39",
"o. c #89AF3B",
"O. c #86B03A",
"+. c #8AB33B",
"@. c #8BB53C",
"#. c #8CB63C",
"$. c #8FB83D",
"%. c #90B73D",
"&. c #91BA3D",
"*. c #94BB3E",
"=. c #809A40",
"-. c #83816D",
";. c #4C6E81",
":. c #4E7283",
">. c #517686",
",. c #547887",
"<. c #547688",
"1. c #557989",
"2. c #5B7E8D",
"3. c #5C7F94",
"4. c #5D808F",
"5. c #5E8291",
"6. c #6E8387",
"7. c #60818F",
"8. c #6A828B",
"9. c #788481",
"0. c #718589",
"q. c #73898D",
"w. c #788989",
"e. c #638593",
"r. c #6B8794",
"t. c #668895",
"y. c #698997",
"u. c #628699",
"i. c #65899B",
"p. c #6C8C9A",
"a. c #708890",
"s. c #7C8F91",
"d. c #718F9C",
"f. c #6C909F",
"g. c #72919D",
"h. c #7E959C",
"j. c #668CA0",
"k. c #698EA2",
"l. c #6D93A5",
"z. c #6F95A9",
"x. c #7594A1",
"c. c #7A97A2",
"v. c #7D99A4",
"b. c #7197AA",
"n. c #7499AD",
"m. c #7D9EAD",
"M. c #769EB1",
"N. c #7B9FB1",
"B. c #7CA1B4",
"V. c #7EA4B9",
"C. c #858B82",
"Z. c #829598",
"A. c #81989D",
"S. c #839CA4",
"D. c #8AA0A4",
"F. c #82A5B6",
"G. c #82A7BA",
"H. c #86AABE",
"J. c #8CAEBE",
"K. c #87AEC2",
"L. c #89AFC2",
"P. c #8AB0C6",
"I. c #8CB4C9",
"U. c #8FB7CD",
"Y. c #91B7CB",
"T. c #91BAD1",
/* pixels */
"o.} X.X.{ ....X...[ ..{ X.O...O.o.} X.O.} } ..X...[ ..} X.O...+.",
"( X.......@.$.O.O.O.@.X.@.} } X.( ..{ } [ O.$...O.O.O.O.O.} { X.",
"O.#.O.#.&.*.&.$.&.#.*.X.[ ] ( ( ^ ( ( { [ ( O.^ ..] X.X.( { ] Y ",
"@.X.X.....O.@.O.X.{ ( ] , < < 1 8 < / ; 9 = : E 8 ; 6 E , _ / < ",
"} X.{  .X.X.O.( ( / Y - + & % & i i & o   o o +   . o o o 8 > % ",
"..X.#.*.*.X.{ ( T 7 o . * % & & g K j & j % + + .   . . . o . + ",
"O.( X...@.X.R T 9 + . . + & g & i i y & g O % @ . o . o & o . . ",
"} O.O.$.{ ( ' # + + @ o . & n & n . O * * X i * O s y g g o + t ",
"..&.@.@.X.) > o + . + v x u n b C.z O y d H v.v.F.g.0.m D w.q.l.",
"..O.} [ .._ # + $ $ u 0.B.F.G.F.K.I.P.L.U.K.V.B.B.G.U.T.L.N.z.V ",
"..@.X.] / < . $ 4 -.h.n.n.I.u.3.z.b.z.k.G.b.B.z.i.z.N.L.I.B.e.:.",
"..@...! q o . O U D.H.V.V.n.z.z.p.n.M.z.y.4.2.2.1.e.p.2.>.>.t.e.",
"%.&.X.! # o $ y 9.J.I.k.k.z.<.,.t.t.t.t.2.1.4.e.x.d.e.>.:.>.e.5.",
"X.X.( 7 o + 5 k A.G.l.C >.1.1.4.t.e.t.t.e.e.t.e.4.:.>.t.y.p.5.2.",
"@.X.E o . . $ l F G.2.C :.>.,.2.2.e.>.>.>.,.4.t.1.>.>.1.e.5.>.>.",
"@.} ' 3 $ + + b Z.u.2.2.1.,.,.>.>.t.e.2.5.t.t.2.e.e.5.2.2.2.2.>.",
"X.} ..Q 2 g l l b N.i.C e.y.e.e.e.t.g.c.y.4.1.1.4.t.e.e.,.,.y.p.",
"( X.{ ) & % a n P N.j.w ,.1.1.2.y.e.1.e.t.p.e.y.e.1.1.4.t.p.p.e.",
"O.#.( 9 o a b f S u.u.N C >.,.,.4.t.2.e.2.>.>.1.e.t.e.4.t.e.2.2.",
"@.X.{ ! > i I U S.<.V.C ,.p.p.t.e.t.p.g.g.4.2.,.>.>.2.4.e.2.2.2.",
"} X.] Q # g J U H.P.n.C 2.p.p.1.>.>.>.>.2.p.y.e.4.2.5.t.5.1.,.1.",
"..X.O.Q + % % x Y.k.w V :.1.2.,.>.>.>.>.>.4.x.v.g.t.5.t.t.t.p.t.",
"O.( { 9 & * & Z P.;.r :.>.4.p.y.t.4.1.,.>.1.t.e.1.,.>.>.>.5.B.b.",
"} O.O.o.2 u i 0.n.;.>.7.y.t.2.1.2.4.5.5.4.2.2.>.>.1.1.2.t.G.z.1.",
"..&.( E > & % 8.;.:.N ,.1.>.>.>.,.1.2.4.1.,.>.,.2.5.4.f.K.M.i.8.",
"..X.( ! > j s c.N k.B >.2.2.2.2.4.5.e.5.5.2.1.2.e.y.n.K.I.S.v n ",
"..@.{ 7 & l g 6.1.b.w B :.1.4.t.g.p.y.e.e.t.g.v.p.N.P.m.s.M 0 L ",
"X.@...E 2 g g A K.1.w C >.1.2.t.t.1.1.,.,.,.,.e.B.5.G.z % 2 X.| ",
"&.&.#.0 o o @ c K.3.e :.t.p.e.2.t.2.2.2.4.t.e.V.H.x.Z.h ~ Q ( X.",
"X.#.=.0 0 % & f m.z.C 2.p.1.>.>.1.t.v.x.t.e.p.P.L.h.p # 9 [ o.O.",
"@.O.] ` & * * i r.C ;.,.t.2.2.1.1.e.t.y.2.l.L.H.G O o 0 ! ..&.$.",
"@.} X.> & g g x G.C ;.2.e.2.2.e.p.2.>.>.e.z.U.a.& + < _ W { X.X."
};
